M48
;Layer_Color=9474304
;FILE_FORMAT=2:4
INCH,TZ
;TYPE=PLATED
T1F00S00C0.0276
T2F00S00C0.0335
T3F00S00C0.0354
T4F00S00C0.0390
T5F00S00C0.0394
T6F00S00C0.0400
T7F00S00C0.0433
T8F00S00C0.0492
T9F00S00C0.0512
;TYPE=NON_PLATED
T10F00S00C0.1000
%
T01
X23426Y8464
Y10700
X26000
Y8464
X29000
Y10700
X20426
Y8464
T02
X23900Y15950
X23850Y17350
X23750Y18950
X19750
X19850Y17350
X19900Y15950
X7321Y15554
Y19554
X1550Y17600
Y13600
T03
X2750Y3450
Y4450
Y5450
X5750
Y4450
Y3450
X21787Y2382
X22787
X23787
X24787
Y5382
X23787
X22787
X21787
X5750Y6450
Y7450
Y8450
Y9450
Y10450
Y11450
Y12450
Y13450
Y14450
Y15450
Y16450
X9400
X10400
X11400
X12400
Y19450
X11400
X10400
X9400
X2750Y16450
Y15450
Y14450
Y13450
Y12450
Y11450
Y10450
Y9450
Y8450
Y7450
Y6450
T04
X11314Y620
X13086
X14614Y670
X16386
Y3230
X14614
X13086Y3180
X11314
T05
X21850Y13323
X22850
X20850
T06
X11900Y5450
X12900
X13900
X14900
X15900
T07
X750Y8200
Y9200
Y10200
Y11200
Y12200
T08
X25625Y15850
Y16850
Y17850
T09
X28126Y13988
Y15956
X17450Y18250
X16450
X15450
X14450
T10
X1000Y1000
X29000
Y19000
X1000
M30
