G04*
G04 #@! TF.GenerationSoftware,Altium Limited,Altium Designer,22.1.2 (22)*
G04*
G04 Layer_Physical_Order=1*
G04 Layer_Color=255*
%FSLAX25Y25*%
%MOIN*%
G70*
G04*
G04 #@! TF.SameCoordinates,1BA5BB5C-5110-4B30-B957-24BA070B8C90*
G04*
G04*
G04 #@! TF.FilePolarity,Positive*
G04*
G01*
G75*
%ADD13C,0.01000*%
%ADD25C,0.07480*%
%ADD26R,0.07480X0.07480*%
%ADD32O,0.05000X0.10000*%
%ADD33R,0.05000X0.10000*%
%ADD34C,0.05512*%
%ADD35C,0.06000*%
%ADD36C,0.04724*%
%ADD37C,0.05906*%
%ADD38R,0.05906X0.05906*%
%ADD39R,0.05906X0.05906*%
%ADD40C,0.06299*%
%ADD41R,0.06299X0.06299*%
%ADD42C,0.07677*%
%ADD43R,0.07677X0.07677*%
%ADD44R,0.06299X0.06299*%
%ADD45C,0.06299*%
%ADD46R,0.07677X0.07677*%
G36*
X300000Y0D02*
X0D01*
Y200000D01*
X300000D01*
Y0D01*
D02*
G37*
%LPC*%
G36*
X73209Y199325D02*
X72229Y199196D01*
X71315Y198818D01*
X70531Y198216D01*
X69929Y197431D01*
X69550Y196518D01*
X69421Y195537D01*
X69550Y194556D01*
X69929Y193643D01*
X70531Y192858D01*
X71315Y192256D01*
X72229Y191878D01*
X73209Y191749D01*
X74190Y191878D01*
X75104Y192256D01*
X75888Y192858D01*
X76490Y193643D01*
X76869Y194556D01*
X76998Y195537D01*
X76869Y196518D01*
X76490Y197431D01*
X75888Y198216D01*
X75104Y198818D01*
X74190Y199196D01*
X73209Y199325D01*
D02*
G37*
G36*
X114000Y198487D02*
X112968Y198351D01*
X112007Y197953D01*
X111181Y197319D01*
X110547Y196493D01*
X110149Y195532D01*
X110013Y194500D01*
X110149Y193468D01*
X110341Y193004D01*
X101166Y183829D01*
X55300D01*
X54715Y183713D01*
X54219Y183381D01*
X31915Y161078D01*
X31453Y161269D01*
Y168453D01*
X23547D01*
Y160547D01*
X30731D01*
X30922Y160085D01*
X28996Y158159D01*
X28532Y158351D01*
X27500Y158487D01*
X26468Y158351D01*
X25507Y157953D01*
X24681Y157319D01*
X24047Y156493D01*
X23649Y155532D01*
X23513Y154500D01*
X23649Y153468D01*
X24047Y152507D01*
X24681Y151681D01*
X25507Y151047D01*
X26468Y150649D01*
X27500Y150513D01*
X28532Y150649D01*
X29493Y151047D01*
X30319Y151681D01*
X30953Y152507D01*
X31351Y153468D01*
X31487Y154500D01*
X31351Y155532D01*
X31159Y155996D01*
X55933Y180771D01*
X101800D01*
X102385Y180887D01*
X102881Y181219D01*
X112504Y190841D01*
X112968Y190649D01*
X114000Y190513D01*
X115032Y190649D01*
X115993Y191047D01*
X116819Y191681D01*
X117453Y192507D01*
X117851Y193468D01*
X117987Y194500D01*
X117851Y195532D01*
X117453Y196493D01*
X116819Y197319D01*
X115993Y197953D01*
X115032Y198351D01*
X114000Y198487D01*
D02*
G37*
G36*
X104000D02*
X102968Y198351D01*
X102007Y197953D01*
X101181Y197319D01*
X100547Y196493D01*
X100149Y195532D01*
X100013Y194500D01*
X100149Y193468D01*
X100547Y192507D01*
X101181Y191681D01*
X102007Y191047D01*
X102968Y190649D01*
X104000Y190513D01*
X105032Y190649D01*
X105993Y191047D01*
X106819Y191681D01*
X107453Y192507D01*
X107851Y193468D01*
X107987Y194500D01*
X107851Y195532D01*
X107453Y196493D01*
X106819Y197319D01*
X105993Y197953D01*
X105032Y198351D01*
X104000Y198487D01*
D02*
G37*
G36*
X94000D02*
X92968Y198351D01*
X92007Y197953D01*
X91181Y197319D01*
X90547Y196493D01*
X90149Y195532D01*
X90013Y194500D01*
X90149Y193468D01*
X90547Y192507D01*
X91181Y191681D01*
X92007Y191047D01*
X92968Y190649D01*
X94000Y190513D01*
X95032Y190649D01*
X95993Y191047D01*
X96819Y191681D01*
X97453Y192507D01*
X97851Y193468D01*
X97987Y194500D01*
X97851Y195532D01*
X97453Y196493D01*
X96819Y197319D01*
X95993Y197953D01*
X95032Y198351D01*
X94000Y198487D01*
D02*
G37*
G36*
X290000Y196029D02*
X288824Y195913D01*
X287693Y195570D01*
X286650Y195013D01*
X285737Y194263D01*
X284987Y193350D01*
X284430Y192307D01*
X284087Y191176D01*
X283971Y190000D01*
X284087Y188824D01*
X284430Y187693D01*
X284987Y186651D01*
X285737Y185737D01*
X286650Y184987D01*
X287693Y184430D01*
X288824Y184087D01*
X290000Y183971D01*
X291176Y184087D01*
X292307Y184430D01*
X293350Y184987D01*
X294263Y185737D01*
X295013Y186651D01*
X295570Y187693D01*
X295913Y188824D01*
X296029Y190000D01*
X295913Y191176D01*
X295570Y192307D01*
X295013Y193350D01*
X294263Y194263D01*
X293350Y195013D01*
X292307Y195570D01*
X291176Y195913D01*
X290000Y196029D01*
D02*
G37*
G36*
X10000D02*
X8824Y195913D01*
X7693Y195570D01*
X6650Y195013D01*
X5737Y194263D01*
X4987Y193350D01*
X4430Y192307D01*
X4087Y191176D01*
X3971Y190000D01*
X4087Y188824D01*
X4430Y187693D01*
X4987Y186651D01*
X5737Y185737D01*
X6650Y184987D01*
X7693Y184430D01*
X8824Y184087D01*
X10000Y183971D01*
X11176Y184087D01*
X12307Y184430D01*
X13350Y184987D01*
X14263Y185737D01*
X15013Y186651D01*
X15570Y187693D01*
X15913Y188824D01*
X16029Y190000D01*
X15913Y191176D01*
X15570Y192307D01*
X15013Y193350D01*
X14263Y194263D01*
X13350Y195013D01*
X12307Y195570D01*
X11176Y195913D01*
X10000Y196029D01*
D02*
G37*
G36*
X167300Y191229D02*
X134200D01*
X133615Y191113D01*
X133119Y190781D01*
X122919Y180581D01*
X122587Y180085D01*
X122471Y179500D01*
Y168145D01*
X122007Y167953D01*
X121181Y167319D01*
X120547Y166493D01*
X120149Y165532D01*
X120079Y165000D01*
X124000D01*
X127921D01*
X127851Y165532D01*
X127453Y166493D01*
X126819Y167319D01*
X125993Y167953D01*
X125529Y168145D01*
Y178867D01*
X134834Y188171D01*
X166666D01*
X169661Y185176D01*
Y183990D01*
X169161Y183890D01*
X168727Y184940D01*
X167951Y185951D01*
X166940Y186726D01*
X165763Y187214D01*
X164500Y187380D01*
X163237Y187214D01*
X162060Y186726D01*
X161049Y185951D01*
X160274Y184940D01*
X159786Y183763D01*
X159752Y183506D01*
X159248D01*
X159214Y183763D01*
X158727Y184940D01*
X157951Y185951D01*
X156940Y186726D01*
X155763Y187214D01*
X154500Y187380D01*
X153237Y187214D01*
X152060Y186726D01*
X151049Y185951D01*
X150274Y184940D01*
X149786Y183763D01*
X149752Y183506D01*
X149248D01*
X149214Y183763D01*
X148726Y184940D01*
X147951Y185951D01*
X146940Y186726D01*
X145763Y187214D01*
X144500Y187380D01*
X143237Y187214D01*
X142060Y186726D01*
X141049Y185951D01*
X140273Y184940D01*
X139786Y183763D01*
X139620Y182500D01*
X139786Y181237D01*
X140273Y180060D01*
X141049Y179049D01*
X142060Y178273D01*
X143237Y177786D01*
X144500Y177620D01*
X145763Y177786D01*
X146940Y178273D01*
X147951Y179049D01*
X148726Y180060D01*
X149214Y181237D01*
X149248Y181494D01*
X149752D01*
X149786Y181237D01*
X150163Y180326D01*
X131414Y161577D01*
X127369D01*
X127123Y162077D01*
X127453Y162507D01*
X127851Y163468D01*
X127921Y164000D01*
X124000D01*
X120079D01*
X120149Y163468D01*
X120547Y162507D01*
X120877Y162077D01*
X120631Y161577D01*
X119086D01*
X117659Y163004D01*
X117851Y163468D01*
X117987Y164500D01*
X117851Y165532D01*
X117453Y166493D01*
X116819Y167319D01*
X115993Y167953D01*
X115032Y168351D01*
X114000Y168487D01*
X112968Y168351D01*
X112007Y167953D01*
X111181Y167319D01*
X110547Y166493D01*
X110149Y165532D01*
X110013Y164500D01*
X110149Y163468D01*
X110547Y162507D01*
X111181Y161681D01*
X112007Y161047D01*
X112968Y160649D01*
X114000Y160513D01*
X115032Y160649D01*
X115496Y160841D01*
X116299Y160038D01*
X116107Y159577D01*
X111086D01*
X107659Y163004D01*
X107851Y163468D01*
X107987Y164500D01*
X107851Y165532D01*
X107453Y166493D01*
X106819Y167319D01*
X105993Y167953D01*
X105032Y168351D01*
X104000Y168487D01*
X102968Y168351D01*
X102007Y167953D01*
X101181Y167319D01*
X100547Y166493D01*
X100149Y165532D01*
X100013Y164500D01*
X100149Y163468D01*
X100547Y162507D01*
X101181Y161681D01*
X102007Y161047D01*
X102968Y160649D01*
X104000Y160513D01*
X105032Y160649D01*
X105496Y160841D01*
X109371Y156966D01*
X109868Y156634D01*
X110453Y156518D01*
X140047D01*
X140632Y156634D01*
X141129Y156966D01*
X162326Y178163D01*
X163237Y177786D01*
X164500Y177620D01*
X165763Y177786D01*
X166940Y178273D01*
X167951Y179049D01*
X168727Y180060D01*
X169161Y181110D01*
X169661Y181010D01*
Y177661D01*
X172971D01*
Y177227D01*
X173087Y176641D01*
X173419Y176145D01*
X214690Y134873D01*
X214457Y134310D01*
X214380Y133727D01*
X218000D01*
Y137346D01*
X217417Y137270D01*
X216853Y137036D01*
X198603Y155286D01*
X198825Y155735D01*
X199000Y155712D01*
X199980Y155841D01*
X200894Y156219D01*
X201679Y156821D01*
X202281Y157606D01*
X202659Y158519D01*
X202788Y159500D01*
X202659Y160480D01*
X202281Y161394D01*
X201679Y162179D01*
X200894Y162781D01*
X199980Y163159D01*
X199000Y163288D01*
X198020Y163159D01*
X197106Y162781D01*
X196321Y162179D01*
X195719Y161394D01*
X195341Y160480D01*
X195212Y159500D01*
X195235Y159325D01*
X194786Y159103D01*
X176690Y177199D01*
X176882Y177661D01*
X179339D01*
Y182000D01*
X174500D01*
Y182500D01*
X174000D01*
Y187339D01*
X171824D01*
X168381Y190781D01*
X167885Y191113D01*
X167300Y191229D01*
D02*
G37*
G36*
X179339Y187339D02*
X175000D01*
Y183000D01*
X179339D01*
Y187339D01*
D02*
G37*
G36*
X15500Y179788D02*
X14520Y179659D01*
X13606Y179281D01*
X12821Y178679D01*
X12219Y177894D01*
X11841Y176980D01*
X11712Y176000D01*
X11841Y175020D01*
X11992Y174655D01*
X6419Y169081D01*
X6087Y168585D01*
X5971Y168000D01*
Y126150D01*
X3350D01*
Y118800D01*
X2915Y118713D01*
X2419Y118381D01*
X1719Y117681D01*
X1387Y117185D01*
X1271Y116600D01*
Y86700D01*
X1387Y86115D01*
X1719Y85619D01*
X3691Y83647D01*
X3457Y83083D01*
X3315Y82000D01*
X3457Y80917D01*
X3875Y79907D01*
X4541Y79040D01*
X5407Y78375D01*
X6417Y77957D01*
X7500Y77815D01*
X8583Y77957D01*
X9593Y78375D01*
X10171Y78819D01*
X10671Y78572D01*
Y59800D01*
X10787Y59215D01*
X11119Y58719D01*
X23841Y45996D01*
X23649Y45532D01*
X23513Y44500D01*
X23649Y43468D01*
X24047Y42507D01*
X24681Y41681D01*
X25507Y41047D01*
X26468Y40649D01*
X27500Y40513D01*
X28532Y40649D01*
X29493Y41047D01*
X30319Y41681D01*
X30953Y42507D01*
X31351Y43468D01*
X31487Y44500D01*
X31351Y45532D01*
X30953Y46493D01*
X30319Y47319D01*
X29493Y47953D01*
X28532Y48351D01*
X27500Y48487D01*
X26468Y48351D01*
X26004Y48159D01*
X13729Y60434D01*
Y107300D01*
X13613Y107885D01*
X13281Y108381D01*
X11669Y109994D01*
X11833Y110537D01*
X12085Y110587D01*
X12581Y110919D01*
X16581Y114919D01*
X16913Y115415D01*
X17029Y116000D01*
Y132568D01*
X17394Y132719D01*
X18179Y133321D01*
X18781Y134106D01*
X19159Y135020D01*
X19288Y136000D01*
X19237Y136393D01*
X19710Y136627D01*
X21471Y134866D01*
Y129000D01*
X21587Y128415D01*
X21919Y127919D01*
X23841Y125996D01*
X23649Y125532D01*
X23513Y124500D01*
X23649Y123468D01*
X24047Y122507D01*
X24681Y121681D01*
X25507Y121047D01*
X26468Y120649D01*
X27500Y120513D01*
X28532Y120649D01*
X29493Y121047D01*
X30319Y121681D01*
X30953Y122507D01*
X31351Y123468D01*
X31487Y124500D01*
X31351Y125532D01*
X30953Y126493D01*
X30319Y127319D01*
X29493Y127953D01*
X28532Y128351D01*
X27500Y128487D01*
X26468Y128351D01*
X26004Y128159D01*
X24529Y129633D01*
Y131167D01*
X25029Y131413D01*
X25507Y131047D01*
X26468Y130649D01*
X27500Y130513D01*
X28532Y130649D01*
X29493Y131047D01*
X30319Y131681D01*
X30953Y132507D01*
X31351Y133468D01*
X31487Y134500D01*
X31351Y135532D01*
X30953Y136493D01*
X30319Y137319D01*
X29493Y137953D01*
X28532Y138351D01*
X27500Y138487D01*
X26468Y138351D01*
X25507Y137953D01*
X24681Y137319D01*
X24407Y136963D01*
X23744Y136919D01*
X19281Y141381D01*
X18785Y141713D01*
X18200Y141829D01*
X13500D01*
X12915Y141713D01*
X12419Y141381D01*
X10163Y139125D01*
X9831Y138629D01*
X9715Y138044D01*
Y134156D01*
X9831Y133571D01*
X10163Y133075D01*
X11271Y131966D01*
Y126150D01*
X9029D01*
Y167367D01*
X14155Y172492D01*
X14520Y172341D01*
X15500Y172212D01*
X16480Y172341D01*
X17394Y172719D01*
X18179Y173321D01*
X18781Y174106D01*
X19159Y175020D01*
X19288Y176000D01*
X19159Y176980D01*
X18781Y177894D01*
X18179Y178679D01*
X17394Y179281D01*
X16480Y179659D01*
X15500Y179788D01*
D02*
G37*
G36*
X124000Y198487D02*
X122968Y198351D01*
X122007Y197953D01*
X121181Y197319D01*
X120547Y196493D01*
X120149Y195532D01*
X120013Y194500D01*
X120149Y193468D01*
X120547Y192507D01*
X121181Y191681D01*
X122007Y191047D01*
X122968Y190649D01*
X124000Y190513D01*
X125032Y190649D01*
X125993Y191047D01*
X126819Y191681D01*
X127453Y192507D01*
X127645Y192971D01*
X195032D01*
X195202Y192471D01*
X194821Y192179D01*
X194219Y191394D01*
X193841Y190480D01*
X193712Y189500D01*
X193841Y188520D01*
X194219Y187606D01*
X194821Y186821D01*
X195606Y186219D01*
X195971Y186068D01*
Y182000D01*
X196087Y181415D01*
X196419Y180919D01*
X196971Y180367D01*
Y176932D01*
X196606Y176781D01*
X195821Y176179D01*
X195219Y175394D01*
X194841Y174480D01*
X194712Y173500D01*
X194841Y172520D01*
X195219Y171606D01*
X195821Y170821D01*
X196606Y170219D01*
X197520Y169841D01*
X198500Y169712D01*
X199480Y169841D01*
X200394Y170219D01*
X201179Y170821D01*
X201781Y171606D01*
X202159Y172520D01*
X202288Y173500D01*
X202159Y174480D01*
X201781Y175394D01*
X201179Y176179D01*
X200394Y176781D01*
X200029Y176932D01*
Y181000D01*
X199913Y181585D01*
X199581Y182081D01*
X199029Y182633D01*
Y186068D01*
X199394Y186219D01*
X200179Y186821D01*
X200781Y187606D01*
X201159Y188520D01*
X201288Y189500D01*
X201159Y190480D01*
X200781Y191394D01*
X200179Y192179D01*
X199798Y192471D01*
X199968Y192971D01*
X215516D01*
X221620Y186866D01*
Y136693D01*
X221120Y136447D01*
X220593Y136852D01*
X219583Y137270D01*
X219000Y137346D01*
Y133227D01*
X218500D01*
Y132727D01*
X214380D01*
X214457Y132143D01*
X214875Y131134D01*
X215541Y130267D01*
X216407Y129602D01*
X216971Y129369D01*
Y99511D01*
X205306Y87847D01*
X205140Y87915D01*
X204762Y87965D01*
Y85140D01*
X207588D01*
X207538Y85518D01*
X207469Y85684D01*
X219581Y97796D01*
X219913Y98292D01*
X220029Y98878D01*
Y129369D01*
X220593Y129602D01*
X221120Y130007D01*
X221620Y129760D01*
Y56256D01*
X221120Y56087D01*
X220692Y56644D01*
X219867Y57278D01*
X218905Y57676D01*
X218373Y57746D01*
Y53825D01*
Y49904D01*
X218905Y49974D01*
X219867Y50372D01*
X220692Y51006D01*
X221120Y51563D01*
X221403Y51527D01*
X221637Y51415D01*
X221737Y50915D01*
X222068Y50419D01*
X226068Y46419D01*
X226564Y46087D01*
X227150Y45971D01*
X231549D01*
X232134Y46087D01*
X232630Y46419D01*
X236378Y50166D01*
X236842Y49974D01*
X237873Y49838D01*
X238905Y49974D01*
X239867Y50372D01*
X240692Y51006D01*
X241326Y51831D01*
X241724Y52793D01*
X241860Y53825D01*
X241724Y54857D01*
X241326Y55818D01*
X240692Y56644D01*
X239867Y57278D01*
X238905Y57676D01*
X237873Y57812D01*
X236842Y57676D01*
X235880Y57278D01*
X235054Y56644D01*
X234421Y55818D01*
X234022Y54857D01*
X233887Y53825D01*
X234022Y52793D01*
X234215Y52329D01*
X230915Y49029D01*
X227783D01*
X227419Y49393D01*
X227653Y49867D01*
X227873Y49838D01*
X228905Y49974D01*
X229867Y50372D01*
X230693Y51006D01*
X231326Y51831D01*
X231724Y52793D01*
X231860Y53825D01*
X231724Y54857D01*
X231326Y55818D01*
X230693Y56644D01*
X229867Y57278D01*
X229403Y57470D01*
Y122668D01*
X234231Y127496D01*
X234563Y127992D01*
X234679Y128577D01*
Y167516D01*
X237155Y169992D01*
X237520Y169841D01*
X238500Y169712D01*
X239480Y169841D01*
X240394Y170219D01*
X241179Y170821D01*
X241781Y171606D01*
X242159Y172520D01*
X242288Y173500D01*
X242159Y174480D01*
X241781Y175394D01*
X241179Y176179D01*
X240394Y176781D01*
X239480Y177159D01*
X238500Y177288D01*
X237520Y177159D01*
X236606Y176781D01*
X235821Y176179D01*
X235219Y175394D01*
X234841Y174480D01*
X234712Y173500D01*
X234841Y172520D01*
X234992Y172155D01*
X232068Y169231D01*
X231737Y168735D01*
X231620Y168150D01*
Y137376D01*
X224679D01*
Y187500D01*
X224563Y188085D01*
X224231Y188581D01*
X217231Y195581D01*
X216735Y195913D01*
X216150Y196029D01*
X127645D01*
X127453Y196493D01*
X126819Y197319D01*
X125993Y197953D01*
X125032Y198351D01*
X124000Y198487D01*
D02*
G37*
G36*
X237500Y193288D02*
X236520Y193159D01*
X235606Y192781D01*
X234821Y192179D01*
X234219Y191394D01*
X233841Y190480D01*
X233712Y189500D01*
X233841Y188520D01*
X234219Y187606D01*
X234821Y186821D01*
X235606Y186219D01*
X236520Y185841D01*
X237500Y185712D01*
X238480Y185841D01*
X239394Y186219D01*
X240179Y186821D01*
X240781Y187606D01*
X240932Y187971D01*
X244620D01*
X251993Y180599D01*
X251636Y179737D01*
X251473Y178500D01*
X251636Y177263D01*
X252114Y176110D01*
X252873Y175119D01*
X253864Y174360D01*
X255017Y173882D01*
X256002Y173752D01*
Y173248D01*
X255017Y173118D01*
X253864Y172641D01*
X252873Y171881D01*
X252114Y170890D01*
X251636Y169737D01*
X251539Y169000D01*
X256254D01*
X260969D01*
X260872Y169737D01*
X260395Y170890D01*
X259635Y171881D01*
X258645Y172641D01*
X257491Y173118D01*
X256506Y173248D01*
Y173752D01*
X257491Y173882D01*
X258645Y174360D01*
X259635Y175119D01*
X260395Y176110D01*
X260751Y176971D01*
X272466D01*
X285071Y164366D01*
Y163313D01*
X284571Y163120D01*
X283700Y163788D01*
X282523Y164276D01*
X281260Y164442D01*
X279997Y164276D01*
X278820Y163788D01*
X277809Y163013D01*
X277033Y162002D01*
X276546Y160825D01*
X276379Y159562D01*
X276546Y158299D01*
X276923Y157388D01*
X261991Y142456D01*
X261529Y142648D01*
Y154754D01*
X261413Y155339D01*
X261081Y155835D01*
X260994Y155923D01*
Y163240D01*
X256561D01*
X256543Y163253D01*
X256571Y163719D01*
X256585Y163762D01*
X257491Y163882D01*
X258645Y164359D01*
X259635Y165119D01*
X260395Y166110D01*
X260872Y167263D01*
X260969Y168000D01*
X256254D01*
X251539D01*
X251636Y167263D01*
X252114Y166110D01*
X252873Y165119D01*
X253864Y164359D01*
X255017Y163882D01*
X255923Y163762D01*
X255937Y163719D01*
X255965Y163253D01*
X255947Y163240D01*
X251514D01*
Y153760D01*
X258471D01*
Y138302D01*
Y110006D01*
X258304Y109937D01*
X257602Y109398D01*
X257063Y108696D01*
X256724Y107878D01*
X256609Y107000D01*
X256724Y106122D01*
X256793Y105956D01*
X255019Y104181D01*
X254687Y103685D01*
X254571Y103100D01*
Y32685D01*
X249369Y27484D01*
X248905Y27676D01*
X247873Y27812D01*
X246842Y27676D01*
X245880Y27277D01*
X245054Y26644D01*
X244421Y25818D01*
X244022Y24857D01*
X243886Y23825D01*
X244022Y22793D01*
X244421Y21831D01*
X245054Y21006D01*
X245880Y20372D01*
X246842Y19974D01*
X247873Y19838D01*
X248905Y19974D01*
X249867Y20372D01*
X250693Y21006D01*
X251326Y21831D01*
X251724Y22793D01*
X251860Y23825D01*
X251724Y24857D01*
X251532Y25321D01*
X257181Y30970D01*
X257513Y31466D01*
X257629Y32051D01*
Y81656D01*
X258078Y81877D01*
X258304Y81703D01*
X259122Y81364D01*
X259500Y81314D01*
Y84640D01*
Y87965D01*
X259122Y87915D01*
X258304Y87577D01*
X258078Y87403D01*
X257629Y87624D01*
Y102466D01*
X258956Y103793D01*
X259122Y103724D01*
X260000Y103609D01*
X260878Y103724D01*
X261696Y104063D01*
X262398Y104602D01*
X262937Y105304D01*
X263276Y106122D01*
X263391Y107000D01*
X263276Y107878D01*
X262937Y108696D01*
X262398Y109398D01*
X261696Y109937D01*
X261529Y110006D01*
Y137669D01*
X279086Y155225D01*
X279997Y154848D01*
X281260Y154682D01*
X282356Y154826D01*
X282591Y154354D01*
X274819Y146581D01*
X274487Y146085D01*
X274371Y145500D01*
Y98740D01*
X274487Y98154D01*
X274819Y97658D01*
X286793Y85684D01*
X286724Y85518D01*
X286609Y84640D01*
X286724Y83762D01*
X287063Y82944D01*
X287602Y82242D01*
X288304Y81703D01*
X289122Y81364D01*
X290000Y81249D01*
X290878Y81364D01*
X291696Y81703D01*
X292398Y82242D01*
X292937Y82944D01*
X293276Y83762D01*
X293391Y84640D01*
X293276Y85518D01*
X292937Y86335D01*
X292398Y87038D01*
X291696Y87577D01*
X290878Y87915D01*
X290000Y88031D01*
X289122Y87915D01*
X288956Y87847D01*
X277429Y99373D01*
Y135038D01*
X279730D01*
Y115740D01*
X279847Y115155D01*
X280178Y114659D01*
X286793Y108044D01*
X286724Y107878D01*
X286675Y107500D01*
X289500D01*
Y110325D01*
X289122Y110276D01*
X288956Y110207D01*
X282789Y116374D01*
Y135038D01*
X286098D01*
Y139377D01*
X281260D01*
Y139877D01*
X280760D01*
Y144716D01*
X277986D01*
X277779Y145216D01*
X287681Y155119D01*
X288013Y155615D01*
X288129Y156200D01*
Y165000D01*
X288013Y165585D01*
X287681Y166081D01*
X274181Y179581D01*
X273685Y179913D01*
X273100Y180029D01*
X260751D01*
X260395Y180891D01*
X259635Y181881D01*
X258645Y182641D01*
X257491Y183118D01*
X256254Y183281D01*
X255017Y183118D01*
X254155Y182761D01*
X246335Y190581D01*
X245839Y190913D01*
X245254Y191029D01*
X240932D01*
X240781Y191394D01*
X240179Y192179D01*
X239394Y192781D01*
X238480Y193159D01*
X237500Y193288D01*
D02*
G37*
G36*
X97953Y168453D02*
X90047D01*
Y160547D01*
X97953D01*
Y168453D01*
D02*
G37*
G36*
X57500Y168487D02*
X56468Y168351D01*
X55507Y167953D01*
X54681Y167319D01*
X54047Y166493D01*
X53649Y165532D01*
X53513Y164500D01*
X53649Y163468D01*
X54047Y162507D01*
X54681Y161681D01*
X55507Y161047D01*
X56468Y160649D01*
X57500Y160513D01*
X58532Y160649D01*
X59493Y161047D01*
X60319Y161681D01*
X60953Y162507D01*
X61351Y163468D01*
X61487Y164500D01*
X61351Y165532D01*
X60953Y166493D01*
X60319Y167319D01*
X59493Y167953D01*
X58532Y168351D01*
X57500Y168487D01*
D02*
G37*
G36*
X239500Y163223D02*
Y160000D01*
X242723D01*
X242659Y160480D01*
X242281Y161394D01*
X241679Y162179D01*
X240894Y162781D01*
X239981Y163159D01*
X239500Y163223D01*
D02*
G37*
G36*
X238500D02*
X238019Y163159D01*
X237106Y162781D01*
X236321Y162179D01*
X235719Y161394D01*
X235341Y160480D01*
X235278Y160000D01*
X238500D01*
Y163223D01*
D02*
G37*
G36*
X242723Y159000D02*
X239500D01*
Y155778D01*
X239981Y155841D01*
X240894Y156219D01*
X241679Y156821D01*
X242281Y157606D01*
X242659Y158519D01*
X242723Y159000D01*
D02*
G37*
G36*
X238500D02*
X235278D01*
X235341Y158519D01*
X235719Y157606D01*
X236321Y156821D01*
X237106Y156219D01*
X238019Y155841D01*
X238500Y155778D01*
Y159000D01*
D02*
G37*
G36*
X73209Y159325D02*
X72229Y159196D01*
X71315Y158818D01*
X70531Y158216D01*
X69929Y157431D01*
X69550Y156518D01*
X69421Y155537D01*
X69550Y154557D01*
X69929Y153643D01*
X70531Y152858D01*
X71315Y152256D01*
X72229Y151878D01*
X73209Y151749D01*
X74190Y151878D01*
X75104Y152256D01*
X75888Y152858D01*
X76490Y153643D01*
X76869Y154557D01*
X76998Y155537D01*
X76869Y156518D01*
X76490Y157431D01*
X75888Y158216D01*
X75104Y158818D01*
X74190Y159196D01*
X73209Y159325D01*
D02*
G37*
G36*
X57500Y158487D02*
X56468Y158351D01*
X55507Y157953D01*
X54681Y157319D01*
X54047Y156493D01*
X53649Y155532D01*
X53513Y154500D01*
X53649Y153468D01*
X54047Y152507D01*
X54681Y151681D01*
X55507Y151047D01*
X56468Y150649D01*
X57500Y150513D01*
X58532Y150649D01*
X59493Y151047D01*
X60319Y151681D01*
X60953Y152507D01*
X61351Y153468D01*
X61487Y154500D01*
X61351Y155532D01*
X60953Y156493D01*
X60319Y157319D01*
X59493Y157953D01*
X58532Y158351D01*
X57500Y158487D01*
D02*
G37*
G36*
Y148487D02*
X56468Y148351D01*
X55507Y147953D01*
X54681Y147319D01*
X54047Y146493D01*
X53649Y145532D01*
X53513Y144500D01*
X53649Y143468D01*
X54047Y142507D01*
X54681Y141681D01*
X55507Y141047D01*
X56468Y140649D01*
X57500Y140513D01*
X58532Y140649D01*
X59493Y141047D01*
X60319Y141681D01*
X60953Y142507D01*
X61351Y143468D01*
X61487Y144500D01*
X61351Y145532D01*
X60953Y146493D01*
X60319Y147319D01*
X59493Y147953D01*
X58532Y148351D01*
X57500Y148487D01*
D02*
G37*
G36*
X27500D02*
X26468Y148351D01*
X25507Y147953D01*
X24681Y147319D01*
X24047Y146493D01*
X23649Y145532D01*
X23513Y144500D01*
X23649Y143468D01*
X24047Y142507D01*
X24681Y141681D01*
X25507Y141047D01*
X26468Y140649D01*
X27500Y140513D01*
X28532Y140649D01*
X29493Y141047D01*
X30319Y141681D01*
X30953Y142507D01*
X31351Y143468D01*
X31487Y144500D01*
X31351Y145532D01*
X30953Y146493D01*
X30319Y147319D01*
X29493Y147953D01*
X28532Y148351D01*
X27500Y148487D01*
D02*
G37*
G36*
X286098Y144716D02*
X281760D01*
Y140377D01*
X286098D01*
Y144716D01*
D02*
G37*
G36*
X57500Y138487D02*
X56468Y138351D01*
X55507Y137953D01*
X54681Y137319D01*
X54047Y136493D01*
X53649Y135532D01*
X53513Y134500D01*
X53649Y133468D01*
X54047Y132507D01*
X54681Y131681D01*
X55507Y131047D01*
X56468Y130649D01*
X57500Y130513D01*
X58532Y130649D01*
X59493Y131047D01*
X60319Y131681D01*
X60953Y132507D01*
X61351Y133468D01*
X61487Y134500D01*
X61351Y135532D01*
X60953Y136493D01*
X60319Y137319D01*
X59493Y137953D01*
X58532Y138351D01*
X57500Y138487D01*
D02*
G37*
G36*
X208500Y137412D02*
X207417Y137270D01*
X206407Y136852D01*
X205540Y136186D01*
X204875Y135319D01*
X204457Y134310D01*
X204315Y133227D01*
X204457Y132143D01*
X204691Y131580D01*
X203181Y130070D01*
X202849Y129574D01*
X202733Y128989D01*
Y110006D01*
X202567Y109937D01*
X201864Y109398D01*
X201325Y108696D01*
X201256Y108529D01*
X155500D01*
X154915Y108413D01*
X154419Y108081D01*
X147919Y101581D01*
X147587Y101085D01*
X147471Y100500D01*
Y60155D01*
X147235Y60057D01*
X146504Y59496D01*
X145943Y58765D01*
X145590Y57914D01*
X145470Y57000D01*
Y52000D01*
X145590Y51086D01*
X145943Y50235D01*
X146504Y49504D01*
X147235Y48943D01*
X148086Y48590D01*
X149000Y48470D01*
X149914Y48590D01*
X150765Y48943D01*
X151496Y49504D01*
X152057Y50235D01*
X152410Y51086D01*
X152530Y52000D01*
Y57000D01*
X152410Y57914D01*
X152057Y58765D01*
X151496Y59496D01*
X150765Y60057D01*
X150529Y60155D01*
Y99866D01*
X156133Y105471D01*
X201256D01*
X201325Y105304D01*
X201864Y104602D01*
X202567Y104063D01*
X203384Y103724D01*
X204262Y103609D01*
X205140Y103724D01*
X205958Y104063D01*
X206660Y104602D01*
X207199Y105304D01*
X207538Y106122D01*
X207653Y107000D01*
X207538Y107878D01*
X207199Y108696D01*
X206660Y109398D01*
X205958Y109937D01*
X205792Y110006D01*
Y128356D01*
X206853Y129417D01*
X207417Y129184D01*
X208500Y129041D01*
X209583Y129184D01*
X210593Y129602D01*
X211459Y130267D01*
X212125Y131134D01*
X212543Y132143D01*
X212685Y133227D01*
X212543Y134310D01*
X212125Y135319D01*
X211459Y136186D01*
X210593Y136852D01*
X209583Y137270D01*
X208500Y137412D01*
D02*
G37*
G36*
X57500Y128487D02*
X56468Y128351D01*
X55507Y127953D01*
X54681Y127319D01*
X54047Y126493D01*
X53649Y125532D01*
X53513Y124500D01*
X53649Y123468D01*
X54047Y122507D01*
X54681Y121681D01*
X55507Y121047D01*
X56468Y120649D01*
X57500Y120513D01*
X58532Y120649D01*
X59493Y121047D01*
X60319Y121681D01*
X60953Y122507D01*
X61351Y123468D01*
X61487Y124500D01*
X61351Y125532D01*
X60953Y126493D01*
X60319Y127319D01*
X59493Y127953D01*
X58532Y128351D01*
X57500Y128487D01*
D02*
G37*
G36*
Y118487D02*
X56468Y118351D01*
X55507Y117953D01*
X54681Y117319D01*
X54047Y116493D01*
X53649Y115532D01*
X53513Y114500D01*
X53649Y113468D01*
X54047Y112507D01*
X54413Y112029D01*
X54167Y111529D01*
X41533D01*
X37481Y115581D01*
X36985Y115913D01*
X36400Y116029D01*
X31145D01*
X30953Y116493D01*
X30319Y117319D01*
X29493Y117953D01*
X28532Y118351D01*
X27500Y118487D01*
X26468Y118351D01*
X25507Y117953D01*
X24681Y117319D01*
X24047Y116493D01*
X23649Y115532D01*
X23513Y114500D01*
X23649Y113468D01*
X24047Y112507D01*
X24681Y111681D01*
X25507Y111047D01*
X26468Y110649D01*
X27500Y110513D01*
X28532Y110649D01*
X29493Y111047D01*
X30319Y111681D01*
X30953Y112507D01*
X31145Y112971D01*
X35767D01*
X39819Y108919D01*
X40315Y108587D01*
X40900Y108471D01*
X55450D01*
X55550Y107971D01*
X55507Y107953D01*
X54681Y107319D01*
X54047Y106493D01*
X53649Y105532D01*
X53513Y104500D01*
X53649Y103468D01*
X54047Y102507D01*
X54681Y101681D01*
X55507Y101047D01*
X56468Y100649D01*
X57500Y100513D01*
X58532Y100649D01*
X59493Y101047D01*
X60319Y101681D01*
X60953Y102507D01*
X61351Y103468D01*
X61487Y104500D01*
X61351Y105532D01*
X60953Y106493D01*
X60319Y107319D01*
X59493Y107953D01*
X59450Y107971D01*
X59550Y108471D01*
X75366D01*
X125688Y58149D01*
X125590Y57914D01*
X125470Y57000D01*
Y52000D01*
X125590Y51086D01*
X125943Y50235D01*
X126504Y49504D01*
X127235Y48943D01*
X128086Y48590D01*
X129000Y48470D01*
X129914Y48590D01*
X130765Y48943D01*
X131496Y49504D01*
X132057Y50235D01*
X132410Y51086D01*
X132530Y52000D01*
Y57000D01*
X132410Y57914D01*
X132057Y58765D01*
X131496Y59496D01*
X130765Y60057D01*
X129914Y60410D01*
X129000Y60530D01*
X128086Y60410D01*
X127851Y60312D01*
X77081Y111081D01*
X76585Y111413D01*
X76000Y111529D01*
X60833D01*
X60587Y112029D01*
X60953Y112507D01*
X61351Y113468D01*
X61487Y114500D01*
X61351Y115532D01*
X60953Y116493D01*
X60319Y117319D01*
X59493Y117953D01*
X58532Y118351D01*
X57500Y118487D01*
D02*
G37*
G36*
X290500Y110325D02*
Y107500D01*
X293325D01*
X293276Y107878D01*
X292937Y108696D01*
X292398Y109398D01*
X291696Y109937D01*
X290878Y110276D01*
X290500Y110325D01*
D02*
G37*
G36*
X234762D02*
Y107500D01*
X237588D01*
X237538Y107878D01*
X237199Y108696D01*
X236660Y109398D01*
X235958Y109937D01*
X235140Y110276D01*
X234762Y110325D01*
D02*
G37*
G36*
X233762D02*
X233384Y110276D01*
X232567Y109937D01*
X231864Y109398D01*
X231325Y108696D01*
X230986Y107878D01*
X230937Y107500D01*
X233762D01*
Y110325D01*
D02*
G37*
G36*
X293325Y106500D02*
X290500D01*
Y103675D01*
X290878Y103724D01*
X291696Y104063D01*
X292398Y104602D01*
X292937Y105304D01*
X293276Y106122D01*
X293325Y106500D01*
D02*
G37*
G36*
X237588D02*
X234762D01*
Y103675D01*
X235140Y103724D01*
X235958Y104063D01*
X236660Y104602D01*
X237199Y105304D01*
X237538Y106122D01*
X237588Y106500D01*
D02*
G37*
G36*
X233762D02*
X230937D01*
X230986Y106122D01*
X231325Y105304D01*
X231864Y104602D01*
X232567Y104063D01*
X233384Y103724D01*
X233762Y103675D01*
Y106500D01*
D02*
G37*
G36*
X289500D02*
X286675D01*
X286724Y106122D01*
X287063Y105304D01*
X287602Y104602D01*
X288304Y104063D01*
X289122Y103724D01*
X289500Y103675D01*
Y106500D01*
D02*
G37*
G36*
X27500Y108487D02*
X26468Y108351D01*
X25507Y107953D01*
X24681Y107319D01*
X24047Y106493D01*
X23649Y105532D01*
X23513Y104500D01*
X23649Y103468D01*
X24047Y102507D01*
X24681Y101681D01*
X25507Y101047D01*
X26468Y100649D01*
X27500Y100513D01*
X28532Y100649D01*
X29493Y101047D01*
X30319Y101681D01*
X30953Y102507D01*
X31351Y103468D01*
X31487Y104500D01*
X31351Y105532D01*
X30953Y106493D01*
X30319Y107319D01*
X29493Y107953D01*
X28532Y108351D01*
X27500Y108487D01*
D02*
G37*
G36*
X27000Y98421D02*
X26468Y98351D01*
X25507Y97953D01*
X24681Y97319D01*
X24047Y96493D01*
X23649Y95532D01*
X23579Y95000D01*
X27000D01*
Y98421D01*
D02*
G37*
G36*
Y94000D02*
X23579D01*
X23649Y93468D01*
X24047Y92507D01*
X24681Y91681D01*
X25507Y91047D01*
X26468Y90649D01*
X27000Y90579D01*
Y94000D01*
D02*
G37*
G36*
X57500Y98487D02*
X56468Y98351D01*
X55507Y97953D01*
X54681Y97319D01*
X54047Y96493D01*
X53649Y95532D01*
X53513Y94500D01*
X53649Y93468D01*
X54047Y92507D01*
X54681Y91681D01*
X55507Y91047D01*
X56468Y90649D01*
X57500Y90513D01*
X58532Y90649D01*
X59493Y91047D01*
X60319Y91681D01*
X60953Y92507D01*
X61351Y93468D01*
X61487Y94500D01*
X61351Y95532D01*
X60953Y96493D01*
X60319Y97319D01*
X59493Y97953D01*
X58532Y98351D01*
X57500Y98487D01*
D02*
G37*
G36*
X260500Y87965D02*
Y85140D01*
X263325D01*
X263276Y85518D01*
X262937Y86335D01*
X262398Y87038D01*
X261696Y87577D01*
X260878Y87915D01*
X260500Y87965D01*
D02*
G37*
G36*
X203762D02*
X203384Y87915D01*
X202567Y87577D01*
X201864Y87038D01*
X201325Y86335D01*
X200987Y85518D01*
X200937Y85140D01*
X203762D01*
Y87965D01*
D02*
G37*
G36*
X263325Y84140D02*
X260500D01*
Y81314D01*
X260878Y81364D01*
X261696Y81703D01*
X262398Y82242D01*
X262937Y82944D01*
X263276Y83762D01*
X263325Y84140D01*
D02*
G37*
G36*
X234262Y88031D02*
X233384Y87915D01*
X232567Y87577D01*
X231864Y87038D01*
X231325Y86335D01*
X230986Y85518D01*
X230871Y84640D01*
X230986Y83762D01*
X231325Y82944D01*
X231864Y82242D01*
X232567Y81703D01*
X233384Y81364D01*
X234262Y81249D01*
X235140Y81364D01*
X235958Y81703D01*
X236660Y82242D01*
X237199Y82944D01*
X237538Y83762D01*
X237653Y84640D01*
X237538Y85518D01*
X237199Y86335D01*
X236660Y87038D01*
X235958Y87577D01*
X235140Y87915D01*
X234262Y88031D01*
D02*
G37*
G36*
X57500Y88487D02*
X56468Y88351D01*
X55507Y87953D01*
X54681Y87319D01*
X54047Y86493D01*
X53649Y85532D01*
X53513Y84500D01*
X53649Y83468D01*
X54047Y82507D01*
X54681Y81681D01*
X55507Y81047D01*
X56468Y80649D01*
X57500Y80513D01*
X58532Y80649D01*
X59493Y81047D01*
X60319Y81681D01*
X60953Y82507D01*
X61351Y83468D01*
X61487Y84500D01*
X61351Y85532D01*
X60953Y86493D01*
X60319Y87319D01*
X59493Y87953D01*
X58532Y88351D01*
X57500Y88487D01*
D02*
G37*
G36*
X27500D02*
X26468Y88351D01*
X25507Y87953D01*
X24681Y87319D01*
X24047Y86493D01*
X23649Y85532D01*
X23513Y84500D01*
X23649Y83468D01*
X24047Y82507D01*
X24681Y81681D01*
X25507Y81047D01*
X26468Y80649D01*
X27500Y80513D01*
X28532Y80649D01*
X29493Y81047D01*
X30319Y81681D01*
X30953Y82507D01*
X31351Y83468D01*
X31487Y84500D01*
X31351Y85532D01*
X30953Y86493D01*
X30319Y87319D01*
X29493Y87953D01*
X28532Y88351D01*
X27500Y88487D01*
D02*
G37*
G36*
X58000Y78421D02*
Y75000D01*
X61421D01*
X61351Y75532D01*
X60953Y76493D01*
X60319Y77319D01*
X59493Y77953D01*
X58532Y78351D01*
X58000Y78421D01*
D02*
G37*
G36*
X28000Y98421D02*
Y94500D01*
Y90579D01*
X28532Y90649D01*
X29493Y91047D01*
X30319Y91681D01*
X30953Y92507D01*
X31145Y92971D01*
X36867D01*
X53841Y75996D01*
X53649Y75532D01*
X53579Y75000D01*
X57000D01*
Y78421D01*
X56468Y78351D01*
X56004Y78159D01*
X38581Y95581D01*
X38085Y95913D01*
X37500Y96029D01*
X31145D01*
X30953Y96493D01*
X30319Y97319D01*
X29493Y97953D01*
X28532Y98351D01*
X28000Y98421D01*
D02*
G37*
G36*
X61421Y74000D02*
X58000D01*
Y70579D01*
X58532Y70649D01*
X59493Y71047D01*
X60319Y71681D01*
X60953Y72507D01*
X61351Y73468D01*
X61421Y74000D01*
D02*
G37*
G36*
X57000D02*
X53579D01*
X53649Y73468D01*
X54047Y72507D01*
X54681Y71681D01*
X55507Y71047D01*
X56468Y70649D01*
X57000Y70579D01*
Y74000D01*
D02*
G37*
G36*
X27500Y78487D02*
X26468Y78351D01*
X25507Y77953D01*
X24681Y77319D01*
X24047Y76493D01*
X23649Y75532D01*
X23513Y74500D01*
X23649Y73468D01*
X24047Y72507D01*
X24681Y71681D01*
X25507Y71047D01*
X26468Y70649D01*
X27500Y70513D01*
X28532Y70649D01*
X29493Y71047D01*
X30319Y71681D01*
X30953Y72507D01*
X31351Y73468D01*
X31487Y74500D01*
X31351Y75532D01*
X30953Y76493D01*
X30319Y77319D01*
X29493Y77953D01*
X28532Y78351D01*
X27500Y78487D01*
D02*
G37*
G36*
Y68487D02*
X26468Y68351D01*
X25507Y67953D01*
X24681Y67319D01*
X24047Y66493D01*
X23649Y65532D01*
X23513Y64500D01*
X23649Y63468D01*
X24047Y62507D01*
X24681Y61681D01*
X25507Y61047D01*
X26468Y60649D01*
X27500Y60513D01*
X28532Y60649D01*
X29493Y61047D01*
X30319Y61681D01*
X30953Y62507D01*
X31351Y63468D01*
X31487Y64500D01*
X31351Y65532D01*
X30953Y66493D01*
X30319Y67319D01*
X29493Y67953D01*
X28532Y68351D01*
X27500Y68487D01*
D02*
G37*
G36*
X139500Y60464D02*
Y55000D01*
X142530D01*
Y57000D01*
X142410Y57914D01*
X142057Y58765D01*
X141496Y59496D01*
X140765Y60057D01*
X139914Y60410D01*
X139500Y60464D01*
D02*
G37*
G36*
X138500D02*
X138086Y60410D01*
X137235Y60057D01*
X136504Y59496D01*
X135943Y58765D01*
X135590Y57914D01*
X135470Y57000D01*
Y55000D01*
X138500D01*
Y60464D01*
D02*
G37*
G36*
X207588Y84140D02*
X204262D01*
X200937D01*
X200987Y83762D01*
X201325Y82944D01*
X201864Y82242D01*
X202567Y81703D01*
X202733Y81634D01*
Y67436D01*
X202849Y66851D01*
X203181Y66355D01*
X214215Y55321D01*
X214022Y54857D01*
X213952Y54325D01*
X217373D01*
Y57746D01*
X216842Y57676D01*
X216377Y57484D01*
X205792Y68069D01*
Y81634D01*
X205958Y81703D01*
X206660Y82242D01*
X207199Y82944D01*
X207538Y83762D01*
X207588Y84140D01*
D02*
G37*
G36*
X27500Y58487D02*
X26468Y58351D01*
X25507Y57953D01*
X24681Y57319D01*
X24047Y56493D01*
X23649Y55532D01*
X23513Y54500D01*
X23649Y53468D01*
X24047Y52507D01*
X24681Y51681D01*
X25507Y51047D01*
X26468Y50649D01*
X27500Y50513D01*
X28532Y50649D01*
X29493Y51047D01*
X30319Y51681D01*
X30953Y52507D01*
X31351Y53468D01*
X31487Y54500D01*
X31351Y55532D01*
X30953Y56493D01*
X30319Y57319D01*
X29493Y57953D01*
X28532Y58351D01*
X27500Y58487D01*
D02*
G37*
G36*
X217373Y53325D02*
X213952D01*
X214022Y52793D01*
X214421Y51831D01*
X215054Y51006D01*
X215880Y50372D01*
X216842Y49974D01*
X217373Y49904D01*
Y53325D01*
D02*
G37*
G36*
X251826Y57778D02*
X243921D01*
Y49872D01*
X251826D01*
Y57778D01*
D02*
G37*
G36*
X122500Y60500D02*
X115500D01*
Y48500D01*
X122500D01*
Y60500D01*
D02*
G37*
G36*
X159000Y60530D02*
X158086Y60410D01*
X157235Y60057D01*
X156504Y59496D01*
X155943Y58765D01*
X155590Y57914D01*
X155470Y57000D01*
Y52000D01*
X155590Y51086D01*
X155943Y50235D01*
X156504Y49504D01*
X157235Y48943D01*
X158086Y48590D01*
X159000Y48470D01*
X159914Y48590D01*
X160765Y48943D01*
X161496Y49504D01*
X162057Y50235D01*
X162410Y51086D01*
X162530Y52000D01*
Y57000D01*
X162410Y57914D01*
X162057Y58765D01*
X161496Y59496D01*
X160765Y60057D01*
X159914Y60410D01*
X159000Y60530D01*
D02*
G37*
G36*
X57500Y48487D02*
X56468Y48351D01*
X55507Y47953D01*
X54681Y47319D01*
X54047Y46493D01*
X53649Y45532D01*
X53513Y44500D01*
X53649Y43468D01*
X54047Y42507D01*
X54681Y41681D01*
X55507Y41047D01*
X56468Y40649D01*
X57500Y40513D01*
X58532Y40649D01*
X59493Y41047D01*
X60319Y41681D01*
X60953Y42507D01*
X61351Y43468D01*
X61487Y44500D01*
X61351Y45532D01*
X60953Y46493D01*
X60319Y47319D01*
X59493Y47953D01*
X58532Y48351D01*
X57500Y48487D01*
D02*
G37*
G36*
Y68487D02*
X56468Y68351D01*
X55507Y67953D01*
X54681Y67319D01*
X54047Y66493D01*
X53649Y65532D01*
X53513Y64500D01*
X53649Y63468D01*
X54047Y62507D01*
X54681Y61681D01*
X55507Y61047D01*
X56468Y60649D01*
X57500Y60513D01*
X58532Y60649D01*
X59493Y61047D01*
X60319Y61681D01*
X60953Y62507D01*
X61145Y62971D01*
X87713D01*
X114724Y35959D01*
X114441Y35535D01*
X114174Y35646D01*
X113142Y35782D01*
X112110Y35646D01*
X111148Y35248D01*
X110323Y34614D01*
X109689Y33789D01*
X109291Y32827D01*
X109155Y31795D01*
X109291Y30763D01*
X109689Y29802D01*
X110323Y28976D01*
X111148Y28343D01*
X112110Y27944D01*
X113142Y27808D01*
X114174Y27944D01*
X115135Y28343D01*
X115961Y28976D01*
X116595Y29802D01*
X116993Y30763D01*
X117129Y31795D01*
X116993Y32827D01*
X116882Y33095D01*
X117306Y33378D01*
X142189Y8495D01*
Y2752D01*
X150095D01*
Y10658D01*
X144352D01*
X89428Y65581D01*
X88932Y65913D01*
X88347Y66029D01*
X61145D01*
X60953Y66493D01*
X60319Y67319D01*
X59493Y67953D01*
X58532Y68351D01*
X57500Y68487D01*
D02*
G37*
G36*
X142530Y54000D02*
X139000D01*
X135470D01*
Y52000D01*
X135590Y51086D01*
X135943Y50235D01*
X136504Y49504D01*
X137235Y48943D01*
X137471Y48845D01*
Y40571D01*
X132354Y35454D01*
X131890Y35646D01*
X131358Y35716D01*
Y32295D01*
X134779D01*
X134709Y32827D01*
X134517Y33291D01*
X140081Y38856D01*
X140413Y39352D01*
X140529Y39937D01*
Y48845D01*
X140765Y48943D01*
X141496Y49504D01*
X142057Y50235D01*
X142410Y51086D01*
X142530Y52000D01*
Y54000D01*
D02*
G37*
G36*
X164358Y36216D02*
Y32795D01*
X167779D01*
X167709Y33327D01*
X167311Y34289D01*
X166677Y35114D01*
X165852Y35748D01*
X164890Y36146D01*
X164358Y36216D01*
D02*
G37*
G36*
X163358D02*
X162826Y36146D01*
X161865Y35748D01*
X161039Y35114D01*
X160406Y34289D01*
X160007Y33327D01*
X159937Y32795D01*
X163358D01*
Y36216D01*
D02*
G37*
G36*
X130358Y35716D02*
X129826Y35646D01*
X128865Y35248D01*
X128039Y34614D01*
X127406Y33789D01*
X127007Y32827D01*
X126937Y32295D01*
X130358D01*
Y35716D01*
D02*
G37*
G36*
X57500Y38487D02*
X56468Y38351D01*
X55507Y37953D01*
X54681Y37319D01*
X54047Y36493D01*
X53649Y35532D01*
X53513Y34500D01*
X53649Y33468D01*
X54047Y32507D01*
X54681Y31681D01*
X55507Y31047D01*
X56468Y30649D01*
X57500Y30513D01*
X58532Y30649D01*
X59493Y31047D01*
X60319Y31681D01*
X60953Y32507D01*
X61351Y33468D01*
X61487Y34500D01*
X61351Y35532D01*
X60953Y36493D01*
X60319Y37319D01*
X59493Y37953D01*
X58532Y38351D01*
X57500Y38487D01*
D02*
G37*
G36*
X27500D02*
X26468Y38351D01*
X25507Y37953D01*
X24681Y37319D01*
X24047Y36493D01*
X23649Y35532D01*
X23513Y34500D01*
X23649Y33468D01*
X24047Y32507D01*
X24681Y31681D01*
X25507Y31047D01*
X26468Y30649D01*
X27500Y30513D01*
X28532Y30649D01*
X29493Y31047D01*
X30319Y31681D01*
X30953Y32507D01*
X31351Y33468D01*
X31487Y34500D01*
X31351Y35532D01*
X30953Y36493D01*
X30319Y37319D01*
X29493Y37953D01*
X28532Y38351D01*
X27500Y38487D01*
D02*
G37*
G36*
X146142Y36282D02*
X145110Y36146D01*
X144148Y35748D01*
X143323Y35114D01*
X142689Y34289D01*
X142291Y33327D01*
X142155Y32295D01*
X142291Y31263D01*
X142689Y30302D01*
X143052Y29829D01*
X142805Y29329D01*
X135487D01*
X134517Y30299D01*
X134709Y30763D01*
X134779Y31295D01*
X131358D01*
Y27874D01*
X131890Y27944D01*
X132354Y28136D01*
X133772Y26719D01*
X134268Y26387D01*
X134853Y26271D01*
X159363D01*
X159948Y26387D01*
X160444Y26719D01*
X162362Y28636D01*
X162826Y28444D01*
X163358Y28374D01*
Y31795D01*
X159937D01*
X160007Y31263D01*
X160199Y30799D01*
X158730Y29329D01*
X149479D01*
X149232Y29829D01*
X149594Y30302D01*
X149993Y31263D01*
X150129Y32295D01*
X149993Y33327D01*
X149594Y34289D01*
X148961Y35114D01*
X148135Y35748D01*
X147174Y36146D01*
X146142Y36282D01*
D02*
G37*
G36*
X167779Y31795D02*
X164358D01*
Y28374D01*
X164890Y28444D01*
X165852Y28842D01*
X166677Y29476D01*
X167311Y30302D01*
X167709Y31263D01*
X167779Y31795D01*
D02*
G37*
G36*
X130358Y31295D02*
X126937D01*
X127007Y30763D01*
X127406Y29802D01*
X128039Y28976D01*
X128865Y28343D01*
X129826Y27944D01*
X130358Y27874D01*
Y31295D01*
D02*
G37*
G36*
X237873Y27812D02*
X236842Y27676D01*
X235880Y27277D01*
X235054Y26644D01*
X234421Y25818D01*
X234022Y24857D01*
X233887Y23825D01*
X234022Y22793D01*
X234421Y21831D01*
X235054Y21006D01*
X235880Y20372D01*
X236842Y19974D01*
X237873Y19838D01*
X238905Y19974D01*
X239867Y20372D01*
X240692Y21006D01*
X241326Y21831D01*
X241724Y22793D01*
X241860Y23825D01*
X241724Y24857D01*
X241326Y25818D01*
X240692Y26644D01*
X239867Y27277D01*
X238905Y27676D01*
X237873Y27812D01*
D02*
G37*
G36*
X227873D02*
X226841Y27676D01*
X225880Y27277D01*
X225054Y26644D01*
X224421Y25818D01*
X224022Y24857D01*
X223886Y23825D01*
X224022Y22793D01*
X224421Y21831D01*
X225054Y21006D01*
X225880Y20372D01*
X226841Y19974D01*
X227873Y19838D01*
X228905Y19974D01*
X229867Y20372D01*
X230693Y21006D01*
X231326Y21831D01*
X231724Y22793D01*
X231860Y23825D01*
X231724Y24857D01*
X231326Y25818D01*
X230693Y26644D01*
X229867Y27277D01*
X228905Y27676D01*
X227873Y27812D01*
D02*
G37*
G36*
X217873D02*
X216842Y27676D01*
X215880Y27277D01*
X215054Y26644D01*
X214421Y25818D01*
X214022Y24857D01*
X213886Y23825D01*
X214022Y22793D01*
X214421Y21831D01*
X215054Y21006D01*
X215880Y20372D01*
X216842Y19974D01*
X217873Y19838D01*
X218905Y19974D01*
X219867Y20372D01*
X220692Y21006D01*
X221326Y21831D01*
X221724Y22793D01*
X221860Y23825D01*
X221724Y24857D01*
X221326Y25818D01*
X220692Y26644D01*
X219867Y27277D01*
X218905Y27676D01*
X217873Y27812D01*
D02*
G37*
G36*
X290000Y16029D02*
X288824Y15913D01*
X287693Y15570D01*
X286650Y15013D01*
X285737Y14263D01*
X284987Y13350D01*
X284430Y12307D01*
X284087Y11176D01*
X283971Y10000D01*
X284087Y8824D01*
X284430Y7693D01*
X284987Y6650D01*
X285737Y5737D01*
X286650Y4987D01*
X287693Y4430D01*
X288824Y4087D01*
X290000Y3971D01*
X291176Y4087D01*
X292307Y4430D01*
X293350Y4987D01*
X294263Y5737D01*
X295013Y6650D01*
X295570Y7693D01*
X295913Y8824D01*
X296029Y10000D01*
X295913Y11176D01*
X295570Y12307D01*
X295013Y13350D01*
X294263Y14263D01*
X293350Y15013D01*
X292307Y15570D01*
X291176Y15913D01*
X290000Y16029D01*
D02*
G37*
G36*
X10000D02*
X8824Y15913D01*
X7693Y15570D01*
X6650Y15013D01*
X5737Y14263D01*
X4987Y13350D01*
X4430Y12307D01*
X4087Y11176D01*
X3971Y10000D01*
X4087Y8824D01*
X4430Y7693D01*
X4987Y6650D01*
X5737Y5737D01*
X6650Y4987D01*
X7693Y4430D01*
X8824Y4087D01*
X10000Y3971D01*
X11176Y4087D01*
X12307Y4430D01*
X13350Y4987D01*
X14263Y5737D01*
X15013Y6650D01*
X15570Y7693D01*
X15913Y8824D01*
X16029Y10000D01*
X15913Y11176D01*
X15570Y12307D01*
X15013Y13350D01*
X14263Y14263D01*
X13350Y15013D01*
X12307Y15570D01*
X11176Y15913D01*
X10000Y16029D01*
D02*
G37*
G36*
X163858Y10692D02*
X162826Y10556D01*
X161865Y10158D01*
X161039Y9524D01*
X160406Y8698D01*
X160007Y7737D01*
X159871Y6705D01*
X160007Y5673D01*
X160406Y4711D01*
X161039Y3886D01*
X161865Y3252D01*
X162826Y2854D01*
X163858Y2718D01*
X164890Y2854D01*
X165852Y3252D01*
X166677Y3886D01*
X167311Y4711D01*
X167709Y5673D01*
X167845Y6705D01*
X167709Y7737D01*
X167311Y8698D01*
X166677Y9524D01*
X165852Y10158D01*
X164890Y10556D01*
X163858Y10692D01*
D02*
G37*
G36*
X57500Y58487D02*
X56468Y58351D01*
X55507Y57953D01*
X54681Y57319D01*
X54047Y56493D01*
X53649Y55532D01*
X53513Y54500D01*
X53649Y53468D01*
X54047Y52507D01*
X54681Y51681D01*
X55507Y51047D01*
X56468Y50649D01*
X57500Y50513D01*
X58532Y50649D01*
X59493Y51047D01*
X60319Y51681D01*
X60953Y52507D01*
X61145Y52971D01*
X64213D01*
X109189Y7995D01*
Y2252D01*
X117095D01*
Y10158D01*
X111352D01*
X65928Y55581D01*
X65432Y55913D01*
X64847Y56029D01*
X61145D01*
X60953Y56493D01*
X60319Y57319D01*
X59493Y57953D01*
X58532Y58351D01*
X57500Y58487D01*
D02*
G37*
G36*
X130858Y10192D02*
X129826Y10056D01*
X128865Y9657D01*
X128039Y9024D01*
X127406Y8198D01*
X127007Y7237D01*
X126871Y6205D01*
X127007Y5173D01*
X127406Y4211D01*
X128039Y3386D01*
X128865Y2752D01*
X129826Y2354D01*
X130858Y2218D01*
X131890Y2354D01*
X132852Y2752D01*
X133677Y3386D01*
X134311Y4211D01*
X134709Y5173D01*
X134845Y6205D01*
X134709Y7237D01*
X134311Y8198D01*
X133677Y9024D01*
X132852Y9657D01*
X131890Y10056D01*
X130858Y10192D01*
D02*
G37*
%LPD*%
G36*
X159786Y181237D02*
X160163Y180326D01*
X139414Y159577D01*
X134393D01*
X134201Y160038D01*
X152326Y178163D01*
X153237Y177786D01*
X154500Y177620D01*
X155763Y177786D01*
X156940Y178273D01*
X157951Y179049D01*
X158727Y180060D01*
X159214Y181237D01*
X159248Y181494D01*
X159752D01*
X159786Y181237D01*
D02*
G37*
G36*
X231025Y128615D02*
X226792Y124382D01*
X226460Y123886D01*
X226344Y123301D01*
Y57470D01*
X225880Y57278D01*
X225179Y56740D01*
X224679Y56918D01*
Y129077D01*
X230833D01*
X231025Y128615D01*
D02*
G37*
D13*
X260000Y138302D02*
Y154754D01*
X275900Y98740D02*
X290000Y84640D01*
X275900Y98740D02*
Y145500D01*
X286600Y156200D01*
Y165000D01*
X273100Y178500D02*
X286600Y165000D01*
X256254Y178500D02*
X273100D01*
X245254Y189500D02*
X256254Y178500D01*
X237500Y189500D02*
X245254D01*
X124000Y194500D02*
X216150D01*
X223150Y187500D01*
Y51500D02*
Y187500D01*
Y51500D02*
X227150Y47500D01*
X231549D01*
X237873Y53825D01*
X256254Y158500D02*
X260000Y154754D01*
X204262Y107000D02*
Y128989D01*
X208500Y133227D01*
X260000Y107000D02*
Y138302D01*
X281260Y159562D01*
X256100Y103100D02*
X260000Y107000D01*
X256100Y32051D02*
Y103100D01*
X247873Y23825D02*
X256100Y32051D01*
X130858Y31795D02*
X139000Y39937D01*
Y54500D01*
X130858Y31795D02*
X134853Y27800D01*
X159363D01*
X163858Y32295D01*
X204262Y67436D02*
X217873Y53825D01*
X204262Y67436D02*
Y84640D01*
X37500Y94500D02*
X57500Y74500D01*
X27500Y94500D02*
X37500D01*
X204262Y84640D02*
X218500Y98878D01*
Y133227D01*
X174500Y177227D02*
X218500Y133227D01*
X174500Y177227D02*
Y182500D01*
X167300Y189700D02*
X174500Y182500D01*
X134200Y189700D02*
X167300D01*
X124000Y179500D02*
X134200Y189700D01*
X124000Y164500D02*
Y179500D01*
X281260Y115740D02*
X290000Y107000D01*
X281260Y115740D02*
Y139877D01*
X12200Y59800D02*
X27500Y44500D01*
X12200Y59800D02*
Y107300D01*
X7500Y112000D02*
X12200Y107300D01*
X7500Y112000D02*
X11500D01*
X15500Y116000D01*
Y136000D01*
X149000Y54500D02*
Y100500D01*
X155500Y107000D01*
X204262D01*
X104000Y164500D02*
X110453Y158047D01*
X140047D01*
X164500Y182500D01*
X114000Y164500D02*
X118453Y160047D01*
X132047D01*
X154500Y182500D01*
X7500Y122000D02*
Y168000D01*
X15500Y176000D01*
X2800Y86700D02*
X7500Y82000D01*
X2800Y86700D02*
Y116600D01*
X3500Y117300D01*
X12200D01*
X12800Y117900D01*
Y132600D01*
X11244Y134156D02*
X12800Y132600D01*
X11244Y134156D02*
Y138044D01*
X13500Y140300D01*
X18200D01*
X23000Y135500D01*
Y129000D02*
Y135500D01*
Y129000D02*
X27500Y124500D01*
Y114500D02*
X36400D01*
X40900Y110000D01*
X76000D01*
X129000Y57000D01*
Y54500D02*
Y57000D01*
X198500Y173500D02*
Y181000D01*
X197500Y182000D02*
X198500Y181000D01*
X197500Y182000D02*
Y189500D01*
X233150Y168150D02*
X238500Y173500D01*
X233150Y128577D02*
Y168150D01*
X227873Y123301D02*
X233150Y128577D01*
X227873Y53825D02*
Y123301D01*
X57500Y54500D02*
X64847D01*
X113142Y6205D01*
X57500Y64500D02*
X88347D01*
X146142Y6705D01*
X27500Y154500D02*
X55300Y182300D01*
X101800D01*
X114000Y194500D01*
D25*
X256254Y178500D02*
D03*
Y168500D02*
D03*
D26*
Y158500D02*
D03*
D32*
X159000Y54500D02*
D03*
X149000D02*
D03*
X139000D02*
D03*
X129000D02*
D03*
D33*
X119000D02*
D03*
D34*
X15500Y136000D02*
D03*
Y176000D02*
D03*
X198500Y173500D02*
D03*
X238500D02*
D03*
X199000Y159500D02*
D03*
X239000D02*
D03*
X197500Y189500D02*
D03*
X237500D02*
D03*
X73209Y195537D02*
D03*
Y155537D02*
D03*
D35*
X10000Y10000D02*
D03*
X290000D02*
D03*
Y190000D02*
D03*
X10000D02*
D03*
D36*
X290000Y107000D02*
D03*
X260000D02*
D03*
Y84640D02*
D03*
X290000D02*
D03*
X204262Y107000D02*
D03*
X234262D02*
D03*
Y84640D02*
D03*
X204262D02*
D03*
D37*
X57500Y34500D02*
D03*
Y44500D02*
D03*
Y54500D02*
D03*
Y64500D02*
D03*
Y74500D02*
D03*
Y84500D02*
D03*
Y94500D02*
D03*
Y104500D02*
D03*
Y114500D02*
D03*
Y124500D02*
D03*
Y134500D02*
D03*
Y144500D02*
D03*
Y154500D02*
D03*
Y164500D02*
D03*
X27500Y34500D02*
D03*
Y44500D02*
D03*
Y54500D02*
D03*
Y64500D02*
D03*
Y74500D02*
D03*
Y84500D02*
D03*
Y94500D02*
D03*
Y104500D02*
D03*
Y114500D02*
D03*
Y124500D02*
D03*
Y134500D02*
D03*
Y144500D02*
D03*
Y154500D02*
D03*
X113142Y31795D02*
D03*
X130858D02*
D03*
Y6205D02*
D03*
X146142Y32295D02*
D03*
X163858D02*
D03*
Y6705D02*
D03*
X104000Y164500D02*
D03*
X114000D02*
D03*
X124000D02*
D03*
X94000Y194500D02*
D03*
X104000D02*
D03*
X114000D02*
D03*
X124000D02*
D03*
X237873Y53825D02*
D03*
X227873D02*
D03*
X217873D02*
D03*
X247873Y23825D02*
D03*
X237873D02*
D03*
X227873D02*
D03*
X217873D02*
D03*
D38*
X27500Y164500D02*
D03*
D39*
X113142Y6205D02*
D03*
X146142Y6705D02*
D03*
X94000Y164500D02*
D03*
X247873Y53825D02*
D03*
D40*
X7500Y82000D02*
D03*
Y92000D02*
D03*
Y112000D02*
D03*
Y102000D02*
D03*
D41*
Y122000D02*
D03*
D42*
X144500Y182500D02*
D03*
X164500D02*
D03*
X154500D02*
D03*
X281260Y159562D02*
D03*
D43*
X174500Y182500D02*
D03*
D44*
X228500Y133227D02*
D03*
D45*
X218500D02*
D03*
X208500D02*
D03*
D46*
X281260Y139877D02*
D03*
M02*
