G04*
G04 #@! TF.GenerationSoftware,Altium Limited,Altium Designer,22.1.2 (22)*
G04*
G04 Layer_Color=16711935*
%FSLAX25Y25*%
%MOIN*%
G70*
G04*
G04 #@! TF.SameCoordinates,1BA5BB5C-5110-4B30-B957-24BA070B8C90*
G04*
G04*
G04 #@! TF.FilePolarity,Negative*
G04*
G01*
G75*
%ADD15O,0.05800X0.10800*%
%ADD16R,0.05800X0.10800*%
%ADD17C,0.06312*%
%ADD18C,0.06800*%
%ADD19C,0.05524*%
%ADD20C,0.06706*%
%ADD21R,0.06706X0.06706*%
%ADD22R,0.06706X0.06706*%
%ADD23C,0.07099*%
%ADD24R,0.07099X0.07099*%
%ADD25C,0.07480*%
%ADD26R,0.07480X0.07480*%
%ADD27C,0.08477*%
%ADD28R,0.08477X0.08477*%
%ADD29R,0.07099X0.07099*%
%ADD30C,0.07099*%
%ADD31R,0.08477X0.08477*%
D15*
X159000Y54500D02*
D03*
X149000D02*
D03*
X139000D02*
D03*
X129000D02*
D03*
D16*
X119000D02*
D03*
D17*
X15500Y136000D02*
D03*
Y176000D02*
D03*
X198500Y173500D02*
D03*
X238500D02*
D03*
X199000Y159500D02*
D03*
X239000D02*
D03*
X197500Y189500D02*
D03*
X237500D02*
D03*
X73209Y195537D02*
D03*
Y155537D02*
D03*
D18*
X10000Y10000D02*
D03*
X290000D02*
D03*
Y190000D02*
D03*
X10000D02*
D03*
D19*
X290000Y107000D02*
D03*
X260000D02*
D03*
Y84640D02*
D03*
X290000D02*
D03*
X204262Y107000D02*
D03*
X234262D02*
D03*
Y84640D02*
D03*
X204262D02*
D03*
D20*
X57500Y34500D02*
D03*
Y44500D02*
D03*
Y54500D02*
D03*
Y64500D02*
D03*
Y74500D02*
D03*
Y84500D02*
D03*
Y94500D02*
D03*
Y104500D02*
D03*
Y114500D02*
D03*
Y124500D02*
D03*
Y134500D02*
D03*
Y144500D02*
D03*
Y154500D02*
D03*
Y164500D02*
D03*
X27500Y34500D02*
D03*
Y44500D02*
D03*
Y54500D02*
D03*
Y64500D02*
D03*
Y74500D02*
D03*
Y84500D02*
D03*
Y94500D02*
D03*
Y104500D02*
D03*
Y114500D02*
D03*
Y124500D02*
D03*
Y134500D02*
D03*
Y144500D02*
D03*
Y154500D02*
D03*
X113142Y31795D02*
D03*
X130858D02*
D03*
Y6205D02*
D03*
X146142Y32295D02*
D03*
X163858D02*
D03*
Y6705D02*
D03*
X104000Y164500D02*
D03*
X114000D02*
D03*
X124000D02*
D03*
X94000Y194500D02*
D03*
X104000D02*
D03*
X114000D02*
D03*
X124000D02*
D03*
X237873Y53825D02*
D03*
X227873D02*
D03*
X217873D02*
D03*
X247873Y23825D02*
D03*
X237873D02*
D03*
X227873D02*
D03*
X217873D02*
D03*
D21*
X27500Y164500D02*
D03*
D22*
X113142Y6205D02*
D03*
X146142Y6705D02*
D03*
X94000Y164500D02*
D03*
X247873Y53825D02*
D03*
D23*
X7500Y82000D02*
D03*
Y92000D02*
D03*
Y112000D02*
D03*
Y102000D02*
D03*
D24*
Y122000D02*
D03*
D25*
X256254Y178500D02*
D03*
Y168500D02*
D03*
D26*
Y158500D02*
D03*
D27*
X144500Y182500D02*
D03*
X164500D02*
D03*
X154500D02*
D03*
X281260Y159562D02*
D03*
D28*
X174500Y182500D02*
D03*
D29*
X228500Y133227D02*
D03*
D30*
X218500D02*
D03*
X208500D02*
D03*
D31*
X281260Y139877D02*
D03*
M02*
