G04*
G04 #@! TF.GenerationSoftware,Altium Limited,Altium Designer,22.1.2 (22)*
G04*
G04 Layer_Physical_Order=2*
G04 Layer_Color=16711680*
%FSLAX25Y25*%
%MOIN*%
G70*
G04*
G04 #@! TF.SameCoordinates,1BA5BB5C-5110-4B30-B957-24BA070B8C90*
G04*
G04*
G04 #@! TF.FilePolarity,Positive*
G04*
G01*
G75*
%ADD13C,0.01000*%
%ADD25C,0.07480*%
%ADD26R,0.07480X0.07480*%
%ADD32O,0.05000X0.10000*%
%ADD33R,0.05000X0.10000*%
%ADD34C,0.05512*%
%ADD35C,0.06000*%
%ADD36C,0.04724*%
%ADD37C,0.05906*%
%ADD38R,0.05906X0.05906*%
%ADD39R,0.05906X0.05906*%
%ADD40C,0.06299*%
%ADD41R,0.06299X0.06299*%
%ADD42C,0.07677*%
%ADD43R,0.07677X0.07677*%
%ADD44R,0.06299X0.06299*%
%ADD45C,0.06299*%
%ADD46R,0.07677X0.07677*%
G36*
X300000Y0D02*
X0D01*
Y200000D01*
X300000D01*
Y0D01*
D02*
G37*
%LPC*%
G36*
X124000Y198487D02*
X122968Y198351D01*
X122007Y197953D01*
X121181Y197319D01*
X120547Y196493D01*
X120149Y195532D01*
X120013Y194500D01*
X120149Y193468D01*
X120547Y192507D01*
X121181Y191681D01*
X122007Y191047D01*
X122968Y190649D01*
X124000Y190513D01*
X125032Y190649D01*
X125993Y191047D01*
X126819Y191681D01*
X127453Y192507D01*
X127851Y193468D01*
X127987Y194500D01*
X127851Y195532D01*
X127453Y196493D01*
X126819Y197319D01*
X125993Y197953D01*
X125032Y198351D01*
X124000Y198487D01*
D02*
G37*
G36*
X114000D02*
X112968Y198351D01*
X112007Y197953D01*
X111181Y197319D01*
X110547Y196493D01*
X110149Y195532D01*
X110013Y194500D01*
X110149Y193468D01*
X110547Y192507D01*
X111181Y191681D01*
X112007Y191047D01*
X112968Y190649D01*
X114000Y190513D01*
X115032Y190649D01*
X115993Y191047D01*
X116819Y191681D01*
X117453Y192507D01*
X117851Y193468D01*
X117987Y194500D01*
X117851Y195532D01*
X117453Y196493D01*
X116819Y197319D01*
X115993Y197953D01*
X115032Y198351D01*
X114000Y198487D01*
D02*
G37*
G36*
X73209Y199325D02*
X72229Y199196D01*
X71315Y198818D01*
X70531Y198216D01*
X69929Y197431D01*
X69550Y196518D01*
X69421Y195537D01*
X69550Y194556D01*
X69929Y193643D01*
X70531Y192858D01*
X71315Y192256D01*
X72229Y191878D01*
X73209Y191749D01*
X74190Y191878D01*
X75104Y192256D01*
X75888Y192858D01*
X76490Y193643D01*
X76641Y194008D01*
X82367D01*
X82956Y193419D01*
X83452Y193087D01*
X84037Y192971D01*
X90355D01*
X90547Y192507D01*
X91181Y191681D01*
X92007Y191047D01*
X92968Y190649D01*
X94000Y190513D01*
X95032Y190649D01*
X95993Y191047D01*
X96819Y191681D01*
X97453Y192507D01*
X97851Y193468D01*
X97987Y194500D01*
X97851Y195532D01*
X97453Y196493D01*
X96819Y197319D01*
X95993Y197953D01*
X95032Y198351D01*
X94000Y198487D01*
X92968Y198351D01*
X92007Y197953D01*
X91181Y197319D01*
X90547Y196493D01*
X90355Y196029D01*
X84671D01*
X84081Y196618D01*
X83585Y196950D01*
X83000Y197066D01*
X76641D01*
X76490Y197431D01*
X75888Y198216D01*
X75104Y198818D01*
X74190Y199196D01*
X73209Y199325D01*
D02*
G37*
G36*
X231900Y196629D02*
X157100D01*
X156515Y196513D01*
X156019Y196181D01*
X146674Y186837D01*
X145763Y187214D01*
X144500Y187380D01*
X143237Y187214D01*
X142060Y186726D01*
X141049Y185951D01*
X140273Y184940D01*
X139786Y183763D01*
X139620Y182500D01*
X139786Y181237D01*
X140273Y180060D01*
X141049Y179049D01*
X142060Y178273D01*
X143237Y177786D01*
X144500Y177620D01*
X145763Y177786D01*
X146940Y178273D01*
X147951Y179049D01*
X148726Y180060D01*
X149214Y181237D01*
X149248Y181494D01*
X149752D01*
X149786Y181237D01*
X150274Y180060D01*
X151049Y179049D01*
X152060Y178273D01*
X153237Y177786D01*
X154500Y177620D01*
X155763Y177786D01*
X156940Y178273D01*
X157951Y179049D01*
X158727Y180060D01*
X159214Y181237D01*
X159248Y181494D01*
X159752D01*
X159786Y181237D01*
X160274Y180060D01*
X161049Y179049D01*
X162060Y178273D01*
X163237Y177786D01*
X164500Y177620D01*
X165763Y177786D01*
X166940Y178273D01*
X167951Y179049D01*
X168727Y180060D01*
X169161Y181110D01*
X169661Y181010D01*
Y177661D01*
X174000D01*
Y182500D01*
Y187339D01*
X169661D01*
Y183990D01*
X169161Y183890D01*
X168727Y184940D01*
X167951Y185951D01*
X166940Y186726D01*
X165763Y187214D01*
X164500Y187380D01*
X163237Y187214D01*
X162060Y186726D01*
X161049Y185951D01*
X160274Y184940D01*
X159786Y183763D01*
X159752Y183506D01*
X159248D01*
X159214Y183763D01*
X158727Y184940D01*
X157951Y185951D01*
X156940Y186726D01*
X155763Y187214D01*
X154500Y187380D01*
X153237Y187214D01*
X152060Y186726D01*
X151049Y185951D01*
X150274Y184940D01*
X149786Y183763D01*
X149752Y183506D01*
X149248D01*
X149214Y183763D01*
X148837Y184674D01*
X157734Y193571D01*
X196206D01*
X196306Y193071D01*
X195606Y192781D01*
X194821Y192179D01*
X194219Y191394D01*
X193841Y190480D01*
X193712Y189500D01*
X193841Y188520D01*
X194219Y187606D01*
X194821Y186821D01*
X195606Y186219D01*
X196519Y185841D01*
X197500Y185712D01*
X198480Y185841D01*
X199394Y186219D01*
X200179Y186821D01*
X200781Y187606D01*
X201159Y188520D01*
X201288Y189500D01*
X201159Y190480D01*
X200781Y191394D01*
X200179Y192179D01*
X199394Y192781D01*
X198694Y193071D01*
X198794Y193571D01*
X231266D01*
X233992Y190845D01*
X233841Y190480D01*
X233712Y189500D01*
X233841Y188520D01*
X234219Y187606D01*
X234821Y186821D01*
X235606Y186219D01*
X236520Y185841D01*
X237500Y185712D01*
X238480Y185841D01*
X239394Y186219D01*
X240179Y186821D01*
X240781Y187606D01*
X241159Y188520D01*
X241288Y189500D01*
X241159Y190480D01*
X240781Y191394D01*
X240179Y192179D01*
X239394Y192781D01*
X238480Y193159D01*
X237500Y193288D01*
X236520Y193159D01*
X236155Y193008D01*
X232981Y196181D01*
X232485Y196513D01*
X231900Y196629D01*
D02*
G37*
G36*
X290000Y196029D02*
X288824Y195913D01*
X287693Y195570D01*
X286650Y195013D01*
X285737Y194263D01*
X284987Y193350D01*
X284430Y192307D01*
X284087Y191176D01*
X283971Y190000D01*
X284087Y188824D01*
X284430Y187693D01*
X284987Y186651D01*
X285737Y185737D01*
X286650Y184987D01*
X287693Y184430D01*
X288824Y184087D01*
X290000Y183971D01*
X291176Y184087D01*
X292307Y184430D01*
X293350Y184987D01*
X294263Y185737D01*
X295013Y186651D01*
X295570Y187693D01*
X295913Y188824D01*
X296029Y190000D01*
X295913Y191176D01*
X295570Y192307D01*
X295013Y193350D01*
X294263Y194263D01*
X293350Y195013D01*
X292307Y195570D01*
X291176Y195913D01*
X290000Y196029D01*
D02*
G37*
G36*
X10000D02*
X8824Y195913D01*
X7693Y195570D01*
X6650Y195013D01*
X5737Y194263D01*
X4987Y193350D01*
X4430Y192307D01*
X4087Y191176D01*
X3971Y190000D01*
X4087Y188824D01*
X4430Y187693D01*
X4987Y186651D01*
X5737Y185737D01*
X6650Y184987D01*
X7693Y184430D01*
X8824Y184087D01*
X10000Y183971D01*
X11176Y184087D01*
X12307Y184430D01*
X13350Y184987D01*
X14263Y185737D01*
X15013Y186651D01*
X15570Y187693D01*
X15913Y188824D01*
X16029Y190000D01*
X15913Y191176D01*
X15570Y192307D01*
X15013Y193350D01*
X14263Y194263D01*
X13350Y195013D01*
X12307Y195570D01*
X11176Y195913D01*
X10000Y196029D01*
D02*
G37*
G36*
X179339Y187339D02*
X175000D01*
Y183000D01*
X179339D01*
Y187339D01*
D02*
G37*
G36*
Y182000D02*
X175000D01*
Y177661D01*
X179339D01*
Y182000D01*
D02*
G37*
G36*
X238500Y177288D02*
X237520Y177159D01*
X236606Y176781D01*
X235821Y176179D01*
X235219Y175394D01*
X234841Y174480D01*
X234712Y173500D01*
X234841Y172520D01*
X234992Y172155D01*
X223867Y161029D01*
X202432D01*
X202281Y161394D01*
X201679Y162179D01*
X200894Y162781D01*
X199980Y163159D01*
X199000Y163288D01*
X198020Y163159D01*
X197106Y162781D01*
X196321Y162179D01*
X195719Y161394D01*
X195341Y160480D01*
X195212Y159500D01*
X195341Y158519D01*
X195719Y157606D01*
X196321Y156821D01*
X197106Y156219D01*
X198020Y155841D01*
X199000Y155712D01*
X199980Y155841D01*
X200894Y156219D01*
X201679Y156821D01*
X202281Y157606D01*
X202432Y157971D01*
X224500D01*
X225085Y158087D01*
X225581Y158419D01*
X237155Y169992D01*
X237520Y169841D01*
X238500Y169712D01*
X239480Y169841D01*
X240394Y170219D01*
X241179Y170821D01*
X241781Y171606D01*
X242159Y172520D01*
X242288Y173500D01*
X242159Y174480D01*
X241781Y175394D01*
X241179Y176179D01*
X240394Y176781D01*
X239480Y177159D01*
X238500Y177288D01*
D02*
G37*
G36*
X198500D02*
X197520Y177159D01*
X196606Y176781D01*
X195821Y176179D01*
X195219Y175394D01*
X194841Y174480D01*
X194712Y173500D01*
X194841Y172520D01*
X195219Y171606D01*
X195821Y170821D01*
X196606Y170219D01*
X197520Y169841D01*
X198500Y169712D01*
X199480Y169841D01*
X200394Y170219D01*
X201179Y170821D01*
X201781Y171606D01*
X202159Y172520D01*
X202288Y173500D01*
X202159Y174480D01*
X201781Y175394D01*
X201179Y176179D01*
X200394Y176781D01*
X199480Y177159D01*
X198500Y177288D01*
D02*
G37*
G36*
X124500Y168421D02*
Y165000D01*
X127921D01*
X127851Y165532D01*
X127453Y166493D01*
X126819Y167319D01*
X125993Y167953D01*
X125032Y168351D01*
X124500Y168421D01*
D02*
G37*
G36*
X123500D02*
X122968Y168351D01*
X122007Y167953D01*
X121181Y167319D01*
X120547Y166493D01*
X120149Y165532D01*
X120079Y165000D01*
X123500D01*
Y168421D01*
D02*
G37*
G36*
X127921Y164000D02*
X124500D01*
Y160579D01*
X125032Y160649D01*
X125993Y161047D01*
X126819Y161681D01*
X127453Y162507D01*
X127851Y163468D01*
X127921Y164000D01*
D02*
G37*
G36*
X123500D02*
X120079D01*
X120149Y163468D01*
X120547Y162507D01*
X121181Y161681D01*
X122007Y161047D01*
X122968Y160649D01*
X123500Y160579D01*
Y164000D01*
D02*
G37*
G36*
X97953Y168453D02*
X90047D01*
Y166029D01*
X82172D01*
X81587Y165913D01*
X81091Y165581D01*
X74555Y159045D01*
X74190Y159196D01*
X73209Y159325D01*
X72229Y159196D01*
X71315Y158818D01*
X70531Y158216D01*
X69929Y157431D01*
X69550Y156518D01*
X69421Y155537D01*
X69550Y154557D01*
X69929Y153643D01*
X70531Y152858D01*
X71315Y152256D01*
X72229Y151878D01*
X73209Y151749D01*
X74190Y151878D01*
X75104Y152256D01*
X75888Y152858D01*
X76490Y153643D01*
X76869Y154557D01*
X76998Y155537D01*
X76869Y156518D01*
X76718Y156882D01*
X82806Y162971D01*
X90047D01*
Y160547D01*
X97953D01*
Y168453D01*
D02*
G37*
G36*
X15500Y179788D02*
X14520Y179659D01*
X13606Y179281D01*
X12821Y178679D01*
X12219Y177894D01*
X11841Y176980D01*
X11712Y176000D01*
X11841Y175020D01*
X12219Y174106D01*
X12821Y173321D01*
X13606Y172719D01*
X13971Y172568D01*
Y168500D01*
X14087Y167915D01*
X14419Y167419D01*
X18418Y163419D01*
X18915Y163087D01*
X19500Y162971D01*
X23547D01*
Y160547D01*
X31453D01*
Y168453D01*
X23547D01*
Y166029D01*
X20133D01*
X17029Y169133D01*
Y172568D01*
X17394Y172719D01*
X18179Y173321D01*
X18781Y174106D01*
X19159Y175020D01*
X19288Y176000D01*
X19159Y176980D01*
X18781Y177894D01*
X18179Y178679D01*
X17394Y179281D01*
X16480Y179659D01*
X15500Y179788D01*
D02*
G37*
G36*
X114000Y168487D02*
X112968Y168351D01*
X112007Y167953D01*
X111181Y167319D01*
X110547Y166493D01*
X110149Y165532D01*
X110013Y164500D01*
X110149Y163468D01*
X110547Y162507D01*
X111181Y161681D01*
X112007Y161047D01*
X112968Y160649D01*
X114000Y160513D01*
X115032Y160649D01*
X115993Y161047D01*
X116819Y161681D01*
X117453Y162507D01*
X117851Y163468D01*
X117987Y164500D01*
X117851Y165532D01*
X117453Y166493D01*
X116819Y167319D01*
X115993Y167953D01*
X115032Y168351D01*
X114000Y168487D01*
D02*
G37*
G36*
X104000D02*
X102968Y168351D01*
X102007Y167953D01*
X101181Y167319D01*
X100547Y166493D01*
X100149Y165532D01*
X100013Y164500D01*
X100149Y163468D01*
X100547Y162507D01*
X101181Y161681D01*
X102007Y161047D01*
X102968Y160649D01*
X104000Y160513D01*
X105032Y160649D01*
X105993Y161047D01*
X106819Y161681D01*
X107453Y162507D01*
X107851Y163468D01*
X107987Y164500D01*
X107851Y165532D01*
X107453Y166493D01*
X106819Y167319D01*
X105993Y167953D01*
X105032Y168351D01*
X104000Y168487D01*
D02*
G37*
G36*
X57500D02*
X56468Y168351D01*
X55507Y167953D01*
X54681Y167319D01*
X54047Y166493D01*
X53649Y165532D01*
X53513Y164500D01*
X53649Y163468D01*
X54047Y162507D01*
X54681Y161681D01*
X55507Y161047D01*
X56468Y160649D01*
X57500Y160513D01*
X58532Y160649D01*
X59493Y161047D01*
X60319Y161681D01*
X60953Y162507D01*
X61351Y163468D01*
X61487Y164500D01*
X61351Y165532D01*
X60953Y166493D01*
X60319Y167319D01*
X59493Y167953D01*
X58532Y168351D01*
X57500Y168487D01*
D02*
G37*
G36*
X238500Y163223D02*
X238019Y163159D01*
X237106Y162781D01*
X236321Y162179D01*
X235719Y161394D01*
X235341Y160480D01*
X235278Y160000D01*
X238500D01*
Y163223D01*
D02*
G37*
G36*
X242723Y159000D02*
X239500D01*
Y155778D01*
X239981Y155841D01*
X240894Y156219D01*
X241679Y156821D01*
X242281Y157606D01*
X242659Y158519D01*
X242723Y159000D01*
D02*
G37*
G36*
X238500D02*
X235278D01*
X235341Y158519D01*
X235719Y157606D01*
X236321Y156821D01*
X237106Y156219D01*
X238019Y155841D01*
X238500Y155778D01*
Y159000D01*
D02*
G37*
G36*
X256254Y183281D02*
X255017Y183118D01*
X253864Y182641D01*
X252873Y181881D01*
X252114Y180891D01*
X251636Y179737D01*
X251473Y178500D01*
X251636Y177263D01*
X252114Y176110D01*
X252873Y175119D01*
X253864Y174360D01*
X255017Y173882D01*
X256002Y173752D01*
Y173248D01*
X255017Y173118D01*
X253864Y172641D01*
X252873Y171881D01*
X252114Y170890D01*
X251757Y170029D01*
X248000D01*
X247415Y169913D01*
X246919Y169581D01*
X240345Y163008D01*
X239981Y163159D01*
X239500Y163223D01*
Y160000D01*
X242723D01*
X242659Y160480D01*
X242508Y160845D01*
X248634Y166971D01*
X251757D01*
X252114Y166110D01*
X252873Y165119D01*
X253864Y164359D01*
X255017Y163882D01*
X255934Y163761D01*
X256093Y163740D01*
X256060Y163240D01*
X251514D01*
Y153760D01*
X260994D01*
Y163240D01*
X256448D01*
X256415Y163740D01*
X256574Y163761D01*
X257491Y163882D01*
X258645Y164359D01*
X259635Y165119D01*
X260395Y166110D01*
X260751Y166971D01*
X262684D01*
X279730Y149924D01*
Y144716D01*
X276421D01*
Y140377D01*
X281260D01*
X286098D01*
Y144716D01*
X282789D01*
Y150557D01*
X282673Y151143D01*
X282341Y151639D01*
X279445Y154535D01*
X279728Y154959D01*
X279997Y154848D01*
X281260Y154682D01*
X282523Y154848D01*
X283700Y155335D01*
X284711Y156111D01*
X285486Y157122D01*
X285974Y158299D01*
X286140Y159562D01*
X285974Y160825D01*
X285486Y162002D01*
X284711Y163013D01*
X283700Y163788D01*
X282523Y164276D01*
X281260Y164442D01*
X279997Y164276D01*
X278820Y163788D01*
X277809Y163013D01*
X277033Y162002D01*
X276546Y160825D01*
X276379Y159562D01*
X276546Y158299D01*
X276657Y158030D01*
X276233Y157747D01*
X264399Y169581D01*
X263902Y169913D01*
X263317Y170029D01*
X260751D01*
X260395Y170890D01*
X259635Y171881D01*
X258645Y172641D01*
X257491Y173118D01*
X256506Y173248D01*
Y173752D01*
X257491Y173882D01*
X258645Y174360D01*
X259635Y175119D01*
X260395Y176110D01*
X260872Y177263D01*
X261035Y178500D01*
X260872Y179737D01*
X260395Y180891D01*
X259635Y181881D01*
X258645Y182641D01*
X257491Y183118D01*
X256254Y183281D01*
D02*
G37*
G36*
X57500Y158487D02*
X56468Y158351D01*
X55507Y157953D01*
X54681Y157319D01*
X54047Y156493D01*
X53649Y155532D01*
X53513Y154500D01*
X53649Y153468D01*
X54047Y152507D01*
X54681Y151681D01*
X55507Y151047D01*
X56468Y150649D01*
X57500Y150513D01*
X58532Y150649D01*
X59493Y151047D01*
X60319Y151681D01*
X60953Y152507D01*
X61351Y153468D01*
X61487Y154500D01*
X61351Y155532D01*
X60953Y156493D01*
X60319Y157319D01*
X59493Y157953D01*
X58532Y158351D01*
X57500Y158487D01*
D02*
G37*
G36*
X27500D02*
X26468Y158351D01*
X25507Y157953D01*
X24681Y157319D01*
X24047Y156493D01*
X23649Y155532D01*
X23513Y154500D01*
X23649Y153468D01*
X24047Y152507D01*
X24681Y151681D01*
X25507Y151047D01*
X26468Y150649D01*
X27500Y150513D01*
X28532Y150649D01*
X29493Y151047D01*
X30319Y151681D01*
X30953Y152507D01*
X31351Y153468D01*
X31487Y154500D01*
X31351Y155532D01*
X30953Y156493D01*
X30319Y157319D01*
X29493Y157953D01*
X28532Y158351D01*
X27500Y158487D01*
D02*
G37*
G36*
X57500Y148487D02*
X56468Y148351D01*
X55507Y147953D01*
X54681Y147319D01*
X54047Y146493D01*
X53649Y145532D01*
X53513Y144500D01*
X53649Y143468D01*
X54047Y142507D01*
X54681Y141681D01*
X55507Y141047D01*
X56468Y140649D01*
X57500Y140513D01*
X58532Y140649D01*
X59493Y141047D01*
X60319Y141681D01*
X60953Y142507D01*
X61351Y143468D01*
X61487Y144500D01*
X61351Y145532D01*
X60953Y146493D01*
X60319Y147319D01*
X59493Y147953D01*
X58532Y148351D01*
X57500Y148487D01*
D02*
G37*
G36*
X27500D02*
X26468Y148351D01*
X25507Y147953D01*
X24681Y147319D01*
X24047Y146493D01*
X23649Y145532D01*
X23513Y144500D01*
X23649Y143468D01*
X24047Y142507D01*
X24681Y141681D01*
X25507Y141047D01*
X26468Y140649D01*
X27500Y140513D01*
X28532Y140649D01*
X29493Y141047D01*
X30319Y141681D01*
X30953Y142507D01*
X31351Y143468D01*
X31487Y144500D01*
X31351Y145532D01*
X30953Y146493D01*
X30319Y147319D01*
X29493Y147953D01*
X28532Y148351D01*
X27500Y148487D01*
D02*
G37*
G36*
X286098Y139377D02*
X281760D01*
Y135038D01*
X286098D01*
Y139377D01*
D02*
G37*
G36*
X280760D02*
X276421D01*
Y135038D01*
X280760D01*
Y139377D01*
D02*
G37*
G36*
X219000Y137346D02*
Y133727D01*
X222620D01*
X222543Y134310D01*
X222125Y135319D01*
X221460Y136186D01*
X220593Y136852D01*
X219583Y137270D01*
X219000Y137346D01*
D02*
G37*
G36*
X218000D02*
X217417Y137270D01*
X216407Y136852D01*
X215541Y136186D01*
X214875Y135319D01*
X214457Y134310D01*
X214380Y133727D01*
X218000D01*
Y137346D01*
D02*
G37*
G36*
X57500Y138487D02*
X56468Y138351D01*
X55507Y137953D01*
X54681Y137319D01*
X54047Y136493D01*
X53649Y135532D01*
X53513Y134500D01*
X53649Y133468D01*
X54047Y132507D01*
X54681Y131681D01*
X55507Y131047D01*
X56468Y130649D01*
X57500Y130513D01*
X58532Y130649D01*
X59493Y131047D01*
X60319Y131681D01*
X60953Y132507D01*
X61351Y133468D01*
X61487Y134500D01*
X61351Y135532D01*
X60953Y136493D01*
X60319Y137319D01*
X59493Y137953D01*
X58532Y138351D01*
X57500Y138487D01*
D02*
G37*
G36*
X15500Y139788D02*
X14520Y139659D01*
X13606Y139281D01*
X12821Y138679D01*
X12219Y137894D01*
X11841Y136980D01*
X11712Y136000D01*
X11841Y135020D01*
X12219Y134106D01*
X12821Y133321D01*
X13606Y132719D01*
X13823Y132629D01*
X13723Y132129D01*
X6800D01*
X6215Y132013D01*
X5719Y131681D01*
X1719Y127681D01*
X1387Y127185D01*
X1271Y126600D01*
Y96700D01*
X1387Y96115D01*
X1719Y95619D01*
X3691Y93647D01*
X3457Y93083D01*
X3315Y92000D01*
X3457Y90917D01*
X3875Y89907D01*
X4541Y89040D01*
X5407Y88375D01*
X6417Y87957D01*
X7500Y87815D01*
X8583Y87957D01*
X9593Y88375D01*
X10459Y89040D01*
X11125Y89907D01*
X11543Y90917D01*
X11685Y92000D01*
X11543Y93083D01*
X11125Y94093D01*
X10459Y94959D01*
X9593Y95625D01*
X8583Y96043D01*
X7500Y96185D01*
X6417Y96043D01*
X5853Y95810D01*
X4329Y97334D01*
Y98572D01*
X4829Y98819D01*
X5407Y98375D01*
X6417Y97957D01*
X7000Y97880D01*
Y102000D01*
Y106120D01*
X6417Y106043D01*
X5407Y105625D01*
X4829Y105181D01*
X4329Y105428D01*
Y108572D01*
X4829Y108819D01*
X5407Y108375D01*
X6417Y107957D01*
X7500Y107815D01*
X8583Y107957D01*
X9593Y108375D01*
X10459Y109040D01*
X11125Y109907D01*
X11543Y110917D01*
X11685Y112000D01*
X11543Y113083D01*
X11125Y114093D01*
X10459Y114960D01*
X9593Y115625D01*
X8583Y116043D01*
X7500Y116185D01*
X6417Y116043D01*
X5407Y115625D01*
X4829Y115181D01*
X4329Y115428D01*
Y117850D01*
X11650D01*
Y126150D01*
X5166D01*
X4974Y126611D01*
X7434Y129071D01*
X23600D01*
X24185Y129187D01*
X24681Y129519D01*
X26004Y130841D01*
X26468Y130649D01*
X27500Y130513D01*
X28532Y130649D01*
X29493Y131047D01*
X30319Y131681D01*
X30953Y132507D01*
X31351Y133468D01*
X31487Y134500D01*
X31351Y135532D01*
X30953Y136493D01*
X30319Y137319D01*
X29493Y137953D01*
X28532Y138351D01*
X27500Y138487D01*
X26468Y138351D01*
X25507Y137953D01*
X24681Y137319D01*
X24047Y136493D01*
X23649Y135532D01*
X23513Y134500D01*
X23649Y133468D01*
X23841Y133004D01*
X22966Y132129D01*
X17277D01*
X17177Y132629D01*
X17394Y132719D01*
X18179Y133321D01*
X18781Y134106D01*
X19159Y135020D01*
X19288Y136000D01*
X19159Y136980D01*
X18781Y137894D01*
X18179Y138679D01*
X17394Y139281D01*
X16480Y139659D01*
X15500Y139788D01*
D02*
G37*
G36*
X222620Y132727D02*
X219000D01*
Y129107D01*
X219583Y129184D01*
X220593Y129602D01*
X221460Y130267D01*
X222125Y131134D01*
X222543Y132143D01*
X222620Y132727D01*
D02*
G37*
G36*
X218000D02*
X214380D01*
X214457Y132143D01*
X214875Y131134D01*
X215541Y130267D01*
X216407Y129602D01*
X217417Y129184D01*
X218000Y129107D01*
Y132727D01*
D02*
G37*
G36*
X208500Y137412D02*
X207417Y137270D01*
X206407Y136852D01*
X205540Y136186D01*
X204875Y135319D01*
X204457Y134310D01*
X204315Y133227D01*
X204457Y132143D01*
X204875Y131134D01*
X205540Y130267D01*
X206407Y129602D01*
X207417Y129184D01*
X208500Y129041D01*
X209583Y129184D01*
X210593Y129602D01*
X211459Y130267D01*
X212125Y131134D01*
X212543Y132143D01*
X212685Y133227D01*
X212543Y134310D01*
X212125Y135319D01*
X211459Y136186D01*
X210593Y136852D01*
X209583Y137270D01*
X208500Y137412D01*
D02*
G37*
G36*
X57500Y128487D02*
X56468Y128351D01*
X55507Y127953D01*
X54681Y127319D01*
X54047Y126493D01*
X53649Y125532D01*
X53513Y124500D01*
X53649Y123468D01*
X54047Y122507D01*
X54681Y121681D01*
X55507Y121047D01*
X56468Y120649D01*
X57500Y120513D01*
X58532Y120649D01*
X59493Y121047D01*
X60319Y121681D01*
X60953Y122507D01*
X61351Y123468D01*
X61487Y124500D01*
X61351Y125532D01*
X60953Y126493D01*
X60319Y127319D01*
X59493Y127953D01*
X58532Y128351D01*
X57500Y128487D01*
D02*
G37*
G36*
X27500D02*
X26468Y128351D01*
X25507Y127953D01*
X24681Y127319D01*
X24047Y126493D01*
X23649Y125532D01*
X23513Y124500D01*
X23649Y123468D01*
X24047Y122507D01*
X24681Y121681D01*
X25507Y121047D01*
X26468Y120649D01*
X27500Y120513D01*
X28532Y120649D01*
X29493Y121047D01*
X30319Y121681D01*
X30953Y122507D01*
X31351Y123468D01*
X31487Y124500D01*
X31351Y125532D01*
X30953Y126493D01*
X30319Y127319D01*
X29493Y127953D01*
X28532Y128351D01*
X27500Y128487D01*
D02*
G37*
G36*
X57500Y118487D02*
X56468Y118351D01*
X55507Y117953D01*
X54681Y117319D01*
X54047Y116493D01*
X53649Y115532D01*
X53513Y114500D01*
X53649Y113468D01*
X54047Y112507D01*
X54681Y111681D01*
X55507Y111047D01*
X56468Y110649D01*
X57500Y110513D01*
X58532Y110649D01*
X59493Y111047D01*
X60319Y111681D01*
X60953Y112507D01*
X61351Y113468D01*
X61487Y114500D01*
X61351Y115532D01*
X60953Y116493D01*
X60319Y117319D01*
X59493Y117953D01*
X58532Y118351D01*
X57500Y118487D01*
D02*
G37*
G36*
X27500D02*
X26468Y118351D01*
X25507Y117953D01*
X24681Y117319D01*
X24047Y116493D01*
X23649Y115532D01*
X23513Y114500D01*
X23649Y113468D01*
X24047Y112507D01*
X24681Y111681D01*
X25507Y111047D01*
X26468Y110649D01*
X27500Y110513D01*
X28532Y110649D01*
X29493Y111047D01*
X30319Y111681D01*
X30953Y112507D01*
X31351Y113468D01*
X31487Y114500D01*
X31351Y115532D01*
X30953Y116493D01*
X30319Y117319D01*
X29493Y117953D01*
X28532Y118351D01*
X27500Y118487D01*
D02*
G37*
G36*
X290500Y110325D02*
Y107500D01*
X293325D01*
X293276Y107878D01*
X292937Y108696D01*
X292398Y109398D01*
X291696Y109937D01*
X290878Y110276D01*
X290500Y110325D01*
D02*
G37*
G36*
X234762D02*
Y107500D01*
X237588D01*
X237538Y107878D01*
X237199Y108696D01*
X236660Y109398D01*
X235958Y109937D01*
X235140Y110276D01*
X234762Y110325D01*
D02*
G37*
G36*
X233762D02*
X233384Y110276D01*
X232567Y109937D01*
X231864Y109398D01*
X231325Y108696D01*
X230986Y107878D01*
X230937Y107500D01*
X233762D01*
Y110325D01*
D02*
G37*
G36*
X293325Y106500D02*
X290500D01*
Y103675D01*
X290878Y103724D01*
X291696Y104063D01*
X292398Y104602D01*
X292937Y105304D01*
X293276Y106122D01*
X293325Y106500D01*
D02*
G37*
G36*
X233762D02*
X230937D01*
X230986Y106122D01*
X231325Y105304D01*
X231864Y104602D01*
X232567Y104063D01*
X233384Y103724D01*
X233762Y103675D01*
Y106500D01*
D02*
G37*
G36*
X289500Y110325D02*
X289122Y110276D01*
X288304Y109937D01*
X287602Y109398D01*
X287063Y108696D01*
X286994Y108529D01*
X282360D01*
X281775Y108413D01*
X281279Y108081D01*
X261044Y87847D01*
X260878Y87915D01*
X260500Y87965D01*
Y85140D01*
X263325D01*
X263276Y85518D01*
X263207Y85684D01*
X282994Y105471D01*
X286994D01*
X287063Y105304D01*
X287602Y104602D01*
X288304Y104063D01*
X289122Y103724D01*
X289500Y103675D01*
Y107000D01*
Y110325D01*
D02*
G37*
G36*
X104000Y198487D02*
X102968Y198351D01*
X102007Y197953D01*
X101181Y197319D01*
X100547Y196493D01*
X100149Y195532D01*
X100013Y194500D01*
X100149Y193468D01*
X100547Y192507D01*
X101181Y191681D01*
X102007Y191047D01*
X102968Y190649D01*
X104000Y190513D01*
X105032Y190649D01*
X105496Y190841D01*
X172619Y123719D01*
X173115Y123387D01*
X173700Y123271D01*
X241566D01*
X256793Y108044D01*
X256724Y107878D01*
X256609Y107000D01*
X256724Y106122D01*
X257063Y105304D01*
X257602Y104602D01*
X258304Y104063D01*
X259122Y103724D01*
X260000Y103609D01*
X260878Y103724D01*
X261696Y104063D01*
X262398Y104602D01*
X262937Y105304D01*
X263276Y106122D01*
X263391Y107000D01*
X263276Y107878D01*
X262937Y108696D01*
X262398Y109398D01*
X261696Y109937D01*
X260878Y110276D01*
X260000Y110391D01*
X259122Y110276D01*
X258956Y110207D01*
X243281Y125881D01*
X242785Y126213D01*
X242200Y126329D01*
X237560D01*
X232650Y131240D01*
Y137376D01*
X224350D01*
Y129077D01*
X230487D01*
X232773Y126791D01*
X232581Y126329D01*
X174334D01*
X107659Y193004D01*
X107851Y193468D01*
X107987Y194500D01*
X107851Y195532D01*
X107453Y196493D01*
X106819Y197319D01*
X105993Y197953D01*
X105032Y198351D01*
X104000Y198487D01*
D02*
G37*
G36*
X204262Y110391D02*
X203384Y110276D01*
X202567Y109937D01*
X201864Y109398D01*
X201325Y108696D01*
X200987Y107878D01*
X200871Y107000D01*
X200987Y106122D01*
X201325Y105304D01*
X201864Y104602D01*
X202567Y104063D01*
X203384Y103724D01*
X204262Y103609D01*
X205140Y103724D01*
X205958Y104063D01*
X206660Y104602D01*
X207199Y105304D01*
X207538Y106122D01*
X207653Y107000D01*
X207538Y107878D01*
X207199Y108696D01*
X206660Y109398D01*
X205958Y109937D01*
X205140Y110276D01*
X204262Y110391D01*
D02*
G37*
G36*
X8000Y106120D02*
Y102500D01*
X11620D01*
X11543Y103083D01*
X11125Y104093D01*
X10459Y104959D01*
X9593Y105625D01*
X8583Y106043D01*
X8000Y106120D01*
D02*
G37*
G36*
X57500Y108487D02*
X56468Y108351D01*
X55507Y107953D01*
X54681Y107319D01*
X54047Y106493D01*
X53649Y105532D01*
X53513Y104500D01*
X53649Y103468D01*
X54047Y102507D01*
X54681Y101681D01*
X55507Y101047D01*
X56468Y100649D01*
X57500Y100513D01*
X58532Y100649D01*
X59493Y101047D01*
X60319Y101681D01*
X60953Y102507D01*
X61351Y103468D01*
X61487Y104500D01*
X61351Y105532D01*
X60953Y106493D01*
X60319Y107319D01*
X59493Y107953D01*
X58532Y108351D01*
X57500Y108487D01*
D02*
G37*
G36*
X28000Y98421D02*
Y95000D01*
X31421D01*
X31351Y95532D01*
X30953Y96493D01*
X30319Y97319D01*
X29493Y97953D01*
X28532Y98351D01*
X28000Y98421D01*
D02*
G37*
G36*
X31421Y94000D02*
X28000D01*
Y90579D01*
X28532Y90649D01*
X29493Y91047D01*
X30319Y91681D01*
X30953Y92507D01*
X31351Y93468D01*
X31421Y94000D01*
D02*
G37*
G36*
X11620Y101500D02*
X8000D01*
Y97880D01*
X8583Y97957D01*
X9147Y98190D01*
X13919Y93419D01*
X14415Y93087D01*
X15000Y92971D01*
X23855D01*
X24047Y92507D01*
X24681Y91681D01*
X25507Y91047D01*
X26468Y90649D01*
X27000Y90579D01*
Y94500D01*
Y98421D01*
X26468Y98351D01*
X25507Y97953D01*
X24681Y97319D01*
X24047Y96493D01*
X23855Y96029D01*
X15633D01*
X11310Y100353D01*
X11543Y100917D01*
X11620Y101500D01*
D02*
G37*
G36*
X57500Y98487D02*
X56468Y98351D01*
X55507Y97953D01*
X54681Y97319D01*
X54047Y96493D01*
X53649Y95532D01*
X53513Y94500D01*
X53649Y93468D01*
X54047Y92507D01*
X54681Y91681D01*
X55507Y91047D01*
X56468Y90649D01*
X57500Y90513D01*
X58532Y90649D01*
X59493Y91047D01*
X60319Y91681D01*
X60953Y92507D01*
X61351Y93468D01*
X61487Y94500D01*
X61351Y95532D01*
X60953Y96493D01*
X60319Y97319D01*
X59493Y97953D01*
X58532Y98351D01*
X57500Y98487D01*
D02*
G37*
G36*
X263325Y84140D02*
X260500D01*
Y81314D01*
X260878Y81364D01*
X261696Y81703D01*
X262398Y82242D01*
X262937Y82944D01*
X263276Y83762D01*
X263325Y84140D01*
D02*
G37*
G36*
X203762D02*
X200937D01*
X200987Y83762D01*
X201325Y82944D01*
X201864Y82242D01*
X202567Y81703D01*
X203384Y81364D01*
X203762Y81314D01*
Y84140D01*
D02*
G37*
G36*
X290000Y88031D02*
X289122Y87915D01*
X288304Y87577D01*
X287602Y87038D01*
X287063Y86335D01*
X286724Y85518D01*
X286609Y84640D01*
X286724Y83762D01*
X287063Y82944D01*
X287602Y82242D01*
X288304Y81703D01*
X289122Y81364D01*
X290000Y81249D01*
X290878Y81364D01*
X291696Y81703D01*
X292398Y82242D01*
X292937Y82944D01*
X293276Y83762D01*
X293391Y84640D01*
X293276Y85518D01*
X292937Y86335D01*
X292398Y87038D01*
X291696Y87577D01*
X290878Y87915D01*
X290000Y88031D01*
D02*
G37*
G36*
X237588Y106500D02*
X234762D01*
Y103675D01*
X235140Y103724D01*
X235306Y103793D01*
X255541Y83558D01*
X255845Y83355D01*
X255967Y82770D01*
X254127Y80929D01*
X235397D01*
X235297Y81429D01*
X235958Y81703D01*
X236660Y82242D01*
X237199Y82944D01*
X237538Y83762D01*
X237653Y84640D01*
X237538Y85518D01*
X237199Y86335D01*
X236660Y87038D01*
X235958Y87577D01*
X235140Y87915D01*
X234262Y88031D01*
X233384Y87915D01*
X233218Y87847D01*
X230983Y90081D01*
X230487Y90413D01*
X229902Y90529D01*
X62000D01*
X61415Y90413D01*
X60919Y90081D01*
X58996Y88159D01*
X58532Y88351D01*
X57500Y88487D01*
X56468Y88351D01*
X55507Y87953D01*
X54681Y87319D01*
X54047Y86493D01*
X53649Y85532D01*
X53513Y84500D01*
X53649Y83468D01*
X54047Y82507D01*
X54681Y81681D01*
X55507Y81047D01*
X56468Y80649D01*
X57500Y80513D01*
X58532Y80649D01*
X59493Y81047D01*
X60319Y81681D01*
X60953Y82507D01*
X61351Y83468D01*
X61487Y84500D01*
X61351Y85532D01*
X61159Y85996D01*
X62634Y87471D01*
X201690D01*
X201813Y86971D01*
X201325Y86335D01*
X200987Y85518D01*
X200937Y85140D01*
X204262D01*
X207588D01*
X207538Y85518D01*
X207199Y86335D01*
X206712Y86971D01*
X206834Y87471D01*
X229269D01*
X231055Y85684D01*
X230986Y85518D01*
X230871Y84640D01*
X230986Y83762D01*
X231325Y82944D01*
X231864Y82242D01*
X232567Y81703D01*
X233227Y81429D01*
X233127Y80929D01*
X210136D01*
X207469Y83596D01*
X207538Y83762D01*
X207588Y84140D01*
X204762D01*
Y81314D01*
X205140Y81364D01*
X205306Y81433D01*
X208421Y78319D01*
X208917Y77987D01*
X209502Y77871D01*
X254760D01*
X255346Y77987D01*
X255842Y78319D01*
X258956Y81433D01*
X259122Y81364D01*
X259500Y81314D01*
Y84640D01*
Y87965D01*
X259122Y87915D01*
X258304Y87577D01*
X257602Y87038D01*
X257306Y86651D01*
X256806Y86619D01*
X237469Y105956D01*
X237538Y106122D01*
X237588Y106500D01*
D02*
G37*
G36*
X27500Y88487D02*
X26468Y88351D01*
X25507Y87953D01*
X24681Y87319D01*
X24047Y86493D01*
X23649Y85532D01*
X23513Y84500D01*
X23649Y83468D01*
X24047Y82507D01*
X24681Y81681D01*
X25507Y81047D01*
X26468Y80649D01*
X27500Y80513D01*
X28532Y80649D01*
X29493Y81047D01*
X30319Y81681D01*
X30953Y82507D01*
X31351Y83468D01*
X31487Y84500D01*
X31351Y85532D01*
X30953Y86493D01*
X30319Y87319D01*
X29493Y87953D01*
X28532Y88351D01*
X27500Y88487D01*
D02*
G37*
G36*
X7500Y86185D02*
X6417Y86043D01*
X5407Y85625D01*
X4541Y84960D01*
X3875Y84093D01*
X3457Y83083D01*
X3315Y82000D01*
X3457Y80917D01*
X3875Y79907D01*
X4541Y79040D01*
X5407Y78375D01*
X6417Y77957D01*
X7500Y77815D01*
X8583Y77957D01*
X9593Y78375D01*
X10459Y79040D01*
X11125Y79907D01*
X11543Y80917D01*
X11685Y82000D01*
X11543Y83083D01*
X11125Y84093D01*
X10459Y84960D01*
X9593Y85625D01*
X8583Y86043D01*
X7500Y86185D01*
D02*
G37*
G36*
X27500Y78487D02*
X26468Y78351D01*
X25507Y77953D01*
X24681Y77319D01*
X24047Y76493D01*
X23649Y75532D01*
X23513Y74500D01*
X23649Y73468D01*
X24047Y72507D01*
X24681Y71681D01*
X25507Y71047D01*
X26468Y70649D01*
X27500Y70513D01*
X28532Y70649D01*
X29493Y71047D01*
X30319Y71681D01*
X30953Y72507D01*
X31351Y73468D01*
X31487Y74500D01*
X31351Y75532D01*
X30953Y76493D01*
X30319Y77319D01*
X29493Y77953D01*
X28532Y78351D01*
X27500Y78487D01*
D02*
G37*
G36*
Y68487D02*
X26468Y68351D01*
X25507Y67953D01*
X24681Y67319D01*
X24047Y66493D01*
X23649Y65532D01*
X23513Y64500D01*
X23649Y63468D01*
X24047Y62507D01*
X24681Y61681D01*
X25507Y61047D01*
X26468Y60649D01*
X27500Y60513D01*
X28532Y60649D01*
X29493Y61047D01*
X30319Y61681D01*
X30953Y62507D01*
X31351Y63468D01*
X31487Y64500D01*
X31351Y65532D01*
X30953Y66493D01*
X30319Y67319D01*
X29493Y67953D01*
X28532Y68351D01*
X27500Y68487D01*
D02*
G37*
G36*
Y108487D02*
X26468Y108351D01*
X25507Y107953D01*
X24681Y107319D01*
X24047Y106493D01*
X23649Y105532D01*
X23513Y104500D01*
X23649Y103468D01*
X24047Y102507D01*
X24681Y101681D01*
X25507Y101047D01*
X26468Y100649D01*
X27500Y100513D01*
X28532Y100649D01*
X28996Y100841D01*
X51471Y78367D01*
Y71500D01*
X51587Y70915D01*
X51919Y70419D01*
X54419Y67919D01*
X54537Y67839D01*
X54593Y67639D01*
X54591Y67202D01*
X54047Y66493D01*
X53649Y65532D01*
X53513Y64500D01*
X53649Y63468D01*
X54047Y62507D01*
X54681Y61681D01*
X55507Y61047D01*
X56468Y60649D01*
X57500Y60513D01*
X58532Y60649D01*
X59493Y61047D01*
X60319Y61681D01*
X60953Y62507D01*
X61351Y63468D01*
X61487Y64500D01*
X61351Y65532D01*
X60953Y66493D01*
X60587Y66971D01*
X60833Y67471D01*
X116867D01*
X117471Y66866D01*
Y60500D01*
X115500D01*
Y48500D01*
X122500D01*
Y60500D01*
X120529D01*
Y67500D01*
X120413Y68085D01*
X120081Y68581D01*
X118581Y70081D01*
X118085Y70413D01*
X117500Y70529D01*
X59550D01*
X59450Y71029D01*
X59493Y71047D01*
X60319Y71681D01*
X60953Y72507D01*
X61145Y72971D01*
X131367D01*
X137471Y66866D01*
Y60155D01*
X137235Y60057D01*
X136504Y59496D01*
X135943Y58765D01*
X135590Y57914D01*
X135470Y57000D01*
Y55000D01*
X139000D01*
X142530D01*
Y57000D01*
X142410Y57914D01*
X142057Y58765D01*
X141496Y59496D01*
X140765Y60057D01*
X140529Y60155D01*
Y67500D01*
X140413Y68085D01*
X140081Y68581D01*
X133081Y75581D01*
X132585Y75913D01*
X132000Y76029D01*
X61145D01*
X60953Y76493D01*
X60319Y77319D01*
X59493Y77953D01*
X58532Y78351D01*
X58000Y78421D01*
Y74500D01*
X57000D01*
Y78421D01*
X56468Y78351D01*
X55507Y77953D01*
X55029Y77587D01*
X54529Y77833D01*
Y79000D01*
X54413Y79585D01*
X54081Y80081D01*
X31159Y103004D01*
X31351Y103468D01*
X31487Y104500D01*
X31351Y105532D01*
X30953Y106493D01*
X30319Y107319D01*
X29493Y107953D01*
X28532Y108351D01*
X27500Y108487D01*
D02*
G37*
G36*
X218373Y57746D02*
Y54325D01*
X221794D01*
X221724Y54857D01*
X221326Y55818D01*
X220692Y56644D01*
X219867Y57278D01*
X218905Y57676D01*
X218373Y57746D01*
D02*
G37*
G36*
X217373D02*
X216842Y57676D01*
X215880Y57278D01*
X215054Y56644D01*
X214421Y55818D01*
X214022Y54857D01*
X213952Y54325D01*
X217373D01*
Y57746D01*
D02*
G37*
G36*
X57500Y58487D02*
X56468Y58351D01*
X55507Y57953D01*
X54681Y57319D01*
X54047Y56493D01*
X53649Y55532D01*
X53513Y54500D01*
X53649Y53468D01*
X54047Y52507D01*
X54681Y51681D01*
X55507Y51047D01*
X56468Y50649D01*
X57500Y50513D01*
X58532Y50649D01*
X59493Y51047D01*
X60319Y51681D01*
X60953Y52507D01*
X61351Y53468D01*
X61487Y54500D01*
X61351Y55532D01*
X60953Y56493D01*
X60319Y57319D01*
X59493Y57953D01*
X58532Y58351D01*
X57500Y58487D01*
D02*
G37*
G36*
X27500D02*
X26468Y58351D01*
X25507Y57953D01*
X24681Y57319D01*
X24047Y56493D01*
X23649Y55532D01*
X23513Y54500D01*
X23649Y53468D01*
X24047Y52507D01*
X24681Y51681D01*
X25507Y51047D01*
X26468Y50649D01*
X27500Y50513D01*
X28532Y50649D01*
X29493Y51047D01*
X30319Y51681D01*
X30953Y52507D01*
X31351Y53468D01*
X31487Y54500D01*
X31351Y55532D01*
X30953Y56493D01*
X30319Y57319D01*
X29493Y57953D01*
X28532Y58351D01*
X27500Y58487D01*
D02*
G37*
G36*
X221794Y53325D02*
X218373D01*
Y49904D01*
X218905Y49974D01*
X219867Y50372D01*
X220692Y51006D01*
X221326Y51831D01*
X221724Y52793D01*
X221794Y53325D01*
D02*
G37*
G36*
X217373D02*
X213952D01*
X214022Y52793D01*
X214215Y52329D01*
X195710Y33825D01*
X167503D01*
X167311Y34289D01*
X166677Y35114D01*
X165852Y35748D01*
X164890Y36146D01*
X164358Y36216D01*
Y32295D01*
Y28374D01*
X164890Y28444D01*
X165852Y28842D01*
X166677Y29476D01*
X167311Y30302D01*
X167503Y30766D01*
X196344D01*
X196929Y30882D01*
X197425Y31214D01*
X216377Y50166D01*
X216842Y49974D01*
X217373Y49904D01*
Y53325D01*
D02*
G37*
G36*
X237873Y57812D02*
X236842Y57676D01*
X235880Y57278D01*
X235054Y56644D01*
X234421Y55818D01*
X234022Y54857D01*
X233887Y53825D01*
X234022Y52793D01*
X234421Y51831D01*
X235054Y51006D01*
X235880Y50372D01*
X236842Y49974D01*
X237873Y49838D01*
X238905Y49974D01*
X239867Y50372D01*
X240692Y51006D01*
X241326Y51831D01*
X241518Y52295D01*
X243921D01*
Y49872D01*
X251826D01*
Y57778D01*
X243921D01*
Y55354D01*
X241518D01*
X241326Y55818D01*
X240692Y56644D01*
X239867Y57278D01*
X238905Y57676D01*
X237873Y57812D01*
D02*
G37*
G36*
X227873D02*
X226841Y57676D01*
X225880Y57278D01*
X225054Y56644D01*
X224421Y55818D01*
X224022Y54857D01*
X223886Y53825D01*
X224022Y52793D01*
X224421Y51831D01*
X225054Y51006D01*
X225880Y50372D01*
X226841Y49974D01*
X227873Y49838D01*
X228905Y49974D01*
X229867Y50372D01*
X230693Y51006D01*
X231326Y51831D01*
X231724Y52793D01*
X231860Y53825D01*
X231724Y54857D01*
X231326Y55818D01*
X230693Y56644D01*
X229867Y57278D01*
X228905Y57676D01*
X227873Y57812D01*
D02*
G37*
G36*
X142530Y54000D02*
X139500D01*
Y48536D01*
X139914Y48590D01*
X140765Y48943D01*
X141496Y49504D01*
X142057Y50235D01*
X142410Y51086D01*
X142530Y52000D01*
Y54000D01*
D02*
G37*
G36*
X138500D02*
X135470D01*
Y52000D01*
X135590Y51086D01*
X135943Y50235D01*
X136504Y49504D01*
X137235Y48943D01*
X138086Y48590D01*
X138500Y48536D01*
Y54000D01*
D02*
G37*
G36*
X159000Y60530D02*
X158086Y60410D01*
X157235Y60057D01*
X156504Y59496D01*
X155943Y58765D01*
X155590Y57914D01*
X155470Y57000D01*
Y52000D01*
X155590Y51086D01*
X155943Y50235D01*
X156504Y49504D01*
X157235Y48943D01*
X158086Y48590D01*
X159000Y48470D01*
X159914Y48590D01*
X160765Y48943D01*
X161496Y49504D01*
X162057Y50235D01*
X162410Y51086D01*
X162530Y52000D01*
Y57000D01*
X162410Y57914D01*
X162057Y58765D01*
X161496Y59496D01*
X160765Y60057D01*
X159914Y60410D01*
X159000Y60530D01*
D02*
G37*
G36*
X129000D02*
X128086Y60410D01*
X127235Y60057D01*
X126504Y59496D01*
X125943Y58765D01*
X125590Y57914D01*
X125470Y57000D01*
Y52000D01*
X125590Y51086D01*
X125943Y50235D01*
X126504Y49504D01*
X127235Y48943D01*
X128086Y48590D01*
X129000Y48470D01*
X129914Y48590D01*
X130765Y48943D01*
X131496Y49504D01*
X132057Y50235D01*
X132410Y51086D01*
X132530Y52000D01*
Y57000D01*
X132410Y57914D01*
X132057Y58765D01*
X131496Y59496D01*
X130765Y60057D01*
X129914Y60410D01*
X129000Y60530D01*
D02*
G37*
G36*
X149000D02*
X148086Y60410D01*
X147235Y60057D01*
X146504Y59496D01*
X145943Y58765D01*
X145590Y57914D01*
X145470Y57000D01*
Y52000D01*
X145590Y51086D01*
X145943Y50235D01*
X146504Y49504D01*
X147235Y48943D01*
X147471Y48845D01*
Y44034D01*
X144966Y41529D01*
X60833D01*
X60587Y42029D01*
X60953Y42507D01*
X61351Y43468D01*
X61487Y44500D01*
X61351Y45532D01*
X60953Y46493D01*
X60319Y47319D01*
X59493Y47953D01*
X58532Y48351D01*
X57500Y48487D01*
X56468Y48351D01*
X55507Y47953D01*
X54681Y47319D01*
X54047Y46493D01*
X53649Y45532D01*
X53513Y44500D01*
X53649Y43468D01*
X54047Y42507D01*
X54413Y42029D01*
X54167Y41529D01*
X32634D01*
X31159Y43004D01*
X31351Y43468D01*
X31487Y44500D01*
X31351Y45532D01*
X30953Y46493D01*
X30319Y47319D01*
X29493Y47953D01*
X28532Y48351D01*
X27500Y48487D01*
X26468Y48351D01*
X25507Y47953D01*
X24681Y47319D01*
X24047Y46493D01*
X23649Y45532D01*
X23513Y44500D01*
X23649Y43468D01*
X24047Y42507D01*
X24681Y41681D01*
X25507Y41047D01*
X26468Y40649D01*
X27500Y40513D01*
X28532Y40649D01*
X28996Y40841D01*
X30919Y38919D01*
X31415Y38587D01*
X32000Y38471D01*
X55450D01*
X55550Y37971D01*
X55507Y37953D01*
X54681Y37319D01*
X54047Y36493D01*
X53649Y35532D01*
X53513Y34500D01*
X53649Y33468D01*
X54047Y32507D01*
X54681Y31681D01*
X55507Y31047D01*
X56468Y30649D01*
X57500Y30513D01*
X58532Y30649D01*
X59493Y31047D01*
X60319Y31681D01*
X60953Y32507D01*
X61351Y33468D01*
X61487Y34500D01*
X61351Y35532D01*
X60953Y36493D01*
X60319Y37319D01*
X59493Y37953D01*
X59450Y37971D01*
X59550Y38471D01*
X145600D01*
X146185Y38587D01*
X146681Y38919D01*
X150081Y42319D01*
X150413Y42815D01*
X150529Y43400D01*
Y48845D01*
X150765Y48943D01*
X151496Y49504D01*
X152057Y50235D01*
X152410Y51086D01*
X152530Y52000D01*
Y57000D01*
X152410Y57914D01*
X152057Y58765D01*
X151496Y59496D01*
X150765Y60057D01*
X149914Y60410D01*
X149000Y60530D01*
D02*
G37*
G36*
X163358Y36216D02*
X162826Y36146D01*
X161865Y35748D01*
X161039Y35114D01*
X160406Y34289D01*
X160007Y33327D01*
X159937Y32795D01*
X163358D01*
Y36216D01*
D02*
G37*
G36*
X131358Y35716D02*
Y32295D01*
X134779D01*
X134709Y32827D01*
X134311Y33789D01*
X133677Y34614D01*
X132852Y35248D01*
X131890Y35646D01*
X131358Y35716D01*
D02*
G37*
G36*
X130358D02*
X129826Y35646D01*
X128865Y35248D01*
X128039Y34614D01*
X127406Y33789D01*
X127007Y32827D01*
X126937Y32295D01*
X130358D01*
Y35716D01*
D02*
G37*
G36*
X27500Y38487D02*
X26468Y38351D01*
X25507Y37953D01*
X24681Y37319D01*
X24047Y36493D01*
X23649Y35532D01*
X23513Y34500D01*
X23649Y33468D01*
X24047Y32507D01*
X24681Y31681D01*
X25507Y31047D01*
X26468Y30649D01*
X27500Y30513D01*
X28532Y30649D01*
X29493Y31047D01*
X30319Y31681D01*
X30953Y32507D01*
X31351Y33468D01*
X31487Y34500D01*
X31351Y35532D01*
X30953Y36493D01*
X30319Y37319D01*
X29493Y37953D01*
X28532Y38351D01*
X27500Y38487D01*
D02*
G37*
G36*
X163358Y31795D02*
X159937D01*
X160007Y31263D01*
X160406Y30302D01*
X161039Y29476D01*
X161865Y28842D01*
X162826Y28444D01*
X163358Y28374D01*
Y31795D01*
D02*
G37*
G36*
X146142Y36282D02*
X145110Y36146D01*
X144148Y35748D01*
X143323Y35114D01*
X142689Y34289D01*
X142291Y33327D01*
X142155Y32295D01*
X142291Y31263D01*
X142689Y30302D01*
X143323Y29476D01*
X144148Y28842D01*
X145110Y28444D01*
X146142Y28308D01*
X147174Y28444D01*
X148135Y28842D01*
X148961Y29476D01*
X149594Y30302D01*
X149993Y31263D01*
X150129Y32295D01*
X149993Y33327D01*
X149594Y34289D01*
X148961Y35114D01*
X148135Y35748D01*
X147174Y36146D01*
X146142Y36282D01*
D02*
G37*
G36*
X134779Y31295D02*
X131358D01*
Y27874D01*
X131890Y27944D01*
X132852Y28343D01*
X133677Y28976D01*
X134311Y29802D01*
X134709Y30763D01*
X134779Y31295D01*
D02*
G37*
G36*
X130358D02*
X126937D01*
X127007Y30763D01*
X127406Y29802D01*
X128039Y28976D01*
X128865Y28343D01*
X129826Y27944D01*
X130358Y27874D01*
Y31295D01*
D02*
G37*
G36*
X113142Y35782D02*
X112110Y35646D01*
X111148Y35248D01*
X110323Y34614D01*
X109689Y33789D01*
X109291Y32827D01*
X109155Y31795D01*
X109291Y30763D01*
X109689Y29802D01*
X110323Y28976D01*
X111148Y28343D01*
X112110Y27944D01*
X113142Y27808D01*
X114174Y27944D01*
X115135Y28343D01*
X115961Y28976D01*
X116595Y29802D01*
X116993Y30763D01*
X117129Y31795D01*
X116993Y32827D01*
X116595Y33789D01*
X115961Y34614D01*
X115135Y35248D01*
X114174Y35646D01*
X113142Y35782D01*
D02*
G37*
G36*
X247873Y27812D02*
X246842Y27676D01*
X245880Y27277D01*
X245054Y26644D01*
X244421Y25818D01*
X244022Y24857D01*
X243886Y23825D01*
X244022Y22793D01*
X244421Y21831D01*
X245054Y21006D01*
X245880Y20372D01*
X246842Y19974D01*
X247873Y19838D01*
X248905Y19974D01*
X249867Y20372D01*
X250693Y21006D01*
X251326Y21831D01*
X251724Y22793D01*
X251860Y23825D01*
X251724Y24857D01*
X251326Y25818D01*
X250693Y26644D01*
X249867Y27277D01*
X248905Y27676D01*
X247873Y27812D01*
D02*
G37*
G36*
X237873D02*
X236842Y27676D01*
X235880Y27277D01*
X235054Y26644D01*
X234421Y25818D01*
X234022Y24857D01*
X233887Y23825D01*
X234022Y22793D01*
X234421Y21831D01*
X235054Y21006D01*
X235880Y20372D01*
X236842Y19974D01*
X237873Y19838D01*
X238905Y19974D01*
X239867Y20372D01*
X240692Y21006D01*
X241326Y21831D01*
X241724Y22793D01*
X241860Y23825D01*
X241724Y24857D01*
X241326Y25818D01*
X240692Y26644D01*
X239867Y27277D01*
X238905Y27676D01*
X237873Y27812D01*
D02*
G37*
G36*
X227873D02*
X226841Y27676D01*
X225880Y27277D01*
X225054Y26644D01*
X224421Y25818D01*
X224022Y24857D01*
X223886Y23825D01*
X224022Y22793D01*
X224421Y21831D01*
X225054Y21006D01*
X225880Y20372D01*
X226841Y19974D01*
X227873Y19838D01*
X228905Y19974D01*
X229867Y20372D01*
X230693Y21006D01*
X231326Y21831D01*
X231724Y22793D01*
X231860Y23825D01*
X231724Y24857D01*
X231326Y25818D01*
X230693Y26644D01*
X229867Y27277D01*
X228905Y27676D01*
X227873Y27812D01*
D02*
G37*
G36*
X217873D02*
X216842Y27676D01*
X215880Y27277D01*
X215054Y26644D01*
X214421Y25818D01*
X214022Y24857D01*
X213886Y23825D01*
X214022Y22793D01*
X214421Y21831D01*
X215054Y21006D01*
X215880Y20372D01*
X216842Y19974D01*
X217873Y19838D01*
X218905Y19974D01*
X219867Y20372D01*
X220692Y21006D01*
X221326Y21831D01*
X221724Y22793D01*
X221860Y23825D01*
X221724Y24857D01*
X221326Y25818D01*
X220692Y26644D01*
X219867Y27277D01*
X218905Y27676D01*
X217873Y27812D01*
D02*
G37*
G36*
X290000Y16029D02*
X288824Y15913D01*
X287693Y15570D01*
X286650Y15013D01*
X285737Y14263D01*
X284987Y13350D01*
X284430Y12307D01*
X284087Y11176D01*
X283971Y10000D01*
X284087Y8824D01*
X284430Y7693D01*
X284987Y6650D01*
X285737Y5737D01*
X286650Y4987D01*
X287693Y4430D01*
X288824Y4087D01*
X290000Y3971D01*
X291176Y4087D01*
X292307Y4430D01*
X293350Y4987D01*
X294263Y5737D01*
X295013Y6650D01*
X295570Y7693D01*
X295913Y8824D01*
X296029Y10000D01*
X295913Y11176D01*
X295570Y12307D01*
X295013Y13350D01*
X294263Y14263D01*
X293350Y15013D01*
X292307Y15570D01*
X291176Y15913D01*
X290000Y16029D01*
D02*
G37*
G36*
X10000D02*
X8824Y15913D01*
X7693Y15570D01*
X6650Y15013D01*
X5737Y14263D01*
X4987Y13350D01*
X4430Y12307D01*
X4087Y11176D01*
X3971Y10000D01*
X4087Y8824D01*
X4430Y7693D01*
X4987Y6650D01*
X5737Y5737D01*
X6650Y4987D01*
X7693Y4430D01*
X8824Y4087D01*
X10000Y3971D01*
X11176Y4087D01*
X12307Y4430D01*
X13350Y4987D01*
X14263Y5737D01*
X15013Y6650D01*
X15570Y7693D01*
X15913Y8824D01*
X16029Y10000D01*
X15913Y11176D01*
X15570Y12307D01*
X15013Y13350D01*
X14263Y14263D01*
X13350Y15013D01*
X12307Y15570D01*
X11176Y15913D01*
X10000Y16029D01*
D02*
G37*
G36*
X150095Y10658D02*
X142189D01*
Y2752D01*
X150095D01*
Y10658D01*
D02*
G37*
G36*
X163858Y10692D02*
X162826Y10556D01*
X161865Y10158D01*
X161039Y9524D01*
X160406Y8698D01*
X160007Y7737D01*
X159871Y6705D01*
X160007Y5673D01*
X160406Y4711D01*
X161039Y3886D01*
X161865Y3252D01*
X162826Y2854D01*
X163858Y2718D01*
X164890Y2854D01*
X165852Y3252D01*
X166677Y3886D01*
X167311Y4711D01*
X167709Y5673D01*
X167845Y6705D01*
X167709Y7737D01*
X167311Y8698D01*
X166677Y9524D01*
X165852Y10158D01*
X164890Y10556D01*
X163858Y10692D01*
D02*
G37*
G36*
X117095Y10158D02*
X109189D01*
Y2252D01*
X117095D01*
Y10158D01*
D02*
G37*
G36*
X130858Y10192D02*
X129826Y10056D01*
X128865Y9657D01*
X128039Y9024D01*
X127406Y8198D01*
X127007Y7237D01*
X126871Y6205D01*
X127007Y5173D01*
X127406Y4211D01*
X128039Y3386D01*
X128865Y2752D01*
X129826Y2354D01*
X130858Y2218D01*
X131890Y2354D01*
X132852Y2752D01*
X133677Y3386D01*
X134311Y4211D01*
X134709Y5173D01*
X134845Y6205D01*
X134709Y7237D01*
X134311Y8198D01*
X133677Y9024D01*
X132852Y9657D01*
X131890Y10056D01*
X130858Y10192D01*
D02*
G37*
%LPD*%
D13*
X173700Y124800D02*
X236927D01*
X228500Y133227D02*
X236927Y124800D01*
X242200D01*
X260000Y107000D01*
X104000Y194500D02*
X173700Y124800D01*
X248000Y168500D02*
X256254D01*
X239000Y159500D02*
X248000Y168500D01*
X256254D02*
X263317D01*
X281260Y150557D01*
Y139877D02*
Y150557D01*
X144500Y182500D02*
X157100Y195100D01*
X231900D01*
X237500Y189500D01*
X163858Y32295D02*
X196344D01*
X217873Y53825D01*
X139000Y54500D02*
Y67500D01*
X132000Y74500D02*
X139000Y67500D01*
X57500Y74500D02*
X132000D01*
X15000Y94500D02*
X27500D01*
X7500Y102000D02*
X15000Y94500D01*
X204262Y84640D02*
X209502Y79400D01*
X254760D01*
X260000Y84640D01*
X256622D02*
X260000D01*
X234262Y107000D02*
X256622Y84640D01*
X260000D02*
X282360Y107000D01*
X290000D01*
X57500Y84500D02*
X62000Y89000D01*
X229902D01*
X234262Y84640D01*
X27500Y44500D02*
X32000Y40000D01*
X145600D01*
X149000Y43400D01*
Y54500D01*
X15500Y168500D02*
Y176000D01*
Y168500D02*
X19500Y164500D01*
X27500D01*
X2800Y96700D02*
X7500Y92000D01*
X2800Y96700D02*
Y126600D01*
X6800Y130600D01*
X23600D01*
X27500Y134500D01*
Y104500D02*
X53000Y79000D01*
Y71500D02*
Y79000D01*
Y71500D02*
X55500Y69000D01*
X117500D01*
X119000Y67500D01*
Y54500D02*
Y67500D01*
X199000Y159500D02*
X224500D01*
X238500Y173500D01*
X73209Y195537D02*
X83000D01*
X84037Y194500D01*
X94000D01*
X73209Y155537D02*
X82172Y164500D01*
X94000D01*
X237873Y53825D02*
X247873D01*
D25*
X256254Y178500D02*
D03*
Y168500D02*
D03*
D26*
Y158500D02*
D03*
D32*
X159000Y54500D02*
D03*
X149000D02*
D03*
X139000D02*
D03*
X129000D02*
D03*
D33*
X119000D02*
D03*
D34*
X15500Y136000D02*
D03*
Y176000D02*
D03*
X198500Y173500D02*
D03*
X238500D02*
D03*
X199000Y159500D02*
D03*
X239000D02*
D03*
X197500Y189500D02*
D03*
X237500D02*
D03*
X73209Y195537D02*
D03*
Y155537D02*
D03*
D35*
X10000Y10000D02*
D03*
X290000D02*
D03*
Y190000D02*
D03*
X10000D02*
D03*
D36*
X290000Y107000D02*
D03*
X260000D02*
D03*
Y84640D02*
D03*
X290000D02*
D03*
X204262Y107000D02*
D03*
X234262D02*
D03*
Y84640D02*
D03*
X204262D02*
D03*
D37*
X57500Y34500D02*
D03*
Y44500D02*
D03*
Y54500D02*
D03*
Y64500D02*
D03*
Y74500D02*
D03*
Y84500D02*
D03*
Y94500D02*
D03*
Y104500D02*
D03*
Y114500D02*
D03*
Y124500D02*
D03*
Y134500D02*
D03*
Y144500D02*
D03*
Y154500D02*
D03*
Y164500D02*
D03*
X27500Y34500D02*
D03*
Y44500D02*
D03*
Y54500D02*
D03*
Y64500D02*
D03*
Y74500D02*
D03*
Y84500D02*
D03*
Y94500D02*
D03*
Y104500D02*
D03*
Y114500D02*
D03*
Y124500D02*
D03*
Y134500D02*
D03*
Y144500D02*
D03*
Y154500D02*
D03*
X113142Y31795D02*
D03*
X130858D02*
D03*
Y6205D02*
D03*
X146142Y32295D02*
D03*
X163858D02*
D03*
Y6705D02*
D03*
X104000Y164500D02*
D03*
X114000D02*
D03*
X124000D02*
D03*
X94000Y194500D02*
D03*
X104000D02*
D03*
X114000D02*
D03*
X124000D02*
D03*
X237873Y53825D02*
D03*
X227873D02*
D03*
X217873D02*
D03*
X247873Y23825D02*
D03*
X237873D02*
D03*
X227873D02*
D03*
X217873D02*
D03*
D38*
X27500Y164500D02*
D03*
D39*
X113142Y6205D02*
D03*
X146142Y6705D02*
D03*
X94000Y164500D02*
D03*
X247873Y53825D02*
D03*
D40*
X7500Y82000D02*
D03*
Y92000D02*
D03*
Y112000D02*
D03*
Y102000D02*
D03*
D41*
Y122000D02*
D03*
D42*
X144500Y182500D02*
D03*
X164500D02*
D03*
X154500D02*
D03*
X281260Y159562D02*
D03*
D43*
X174500Y182500D02*
D03*
D44*
X228500Y133227D02*
D03*
D45*
X218500D02*
D03*
X208500D02*
D03*
D46*
X281260Y139877D02*
D03*
M02*
