G04*
G04 #@! TF.GenerationSoftware,Altium Limited,Altium Designer,22.1.2 (22)*
G04*
G04 Layer_Color=32768*
%FSLAX25Y25*%
%MOIN*%
G70*
G04*
G04 #@! TF.SameCoordinates,1BA5BB5C-5110-4B30-B957-24BA070B8C90*
G04*
G04*
G04 #@! TF.FilePolarity,Positive*
G04*
G01*
G75*
%ADD48C,0.00394*%
%ADD49C,0.00197*%
D48*
X42500Y97532D02*
Y101469D01*
X40532Y99500D02*
X44469D01*
X120031Y19000D02*
X123969D01*
X122000Y17031D02*
Y20969D01*
X153031Y19500D02*
X156969D01*
X155000Y17531D02*
Y21469D01*
X109000Y177532D02*
Y181469D01*
X107031Y179500D02*
X110968D01*
X216531Y133227D02*
X220469D01*
X218500Y131258D02*
Y135195D01*
X232873Y36856D02*
Y40793D01*
X230905Y38825D02*
X234842D01*
D49*
X109795Y35142D02*
X134205D01*
X109795Y2858D02*
Y35142D01*
Y2858D02*
X134205D01*
Y35142D01*
X142795Y35642D02*
X167205D01*
X142795Y3358D02*
Y35642D01*
Y3358D02*
X167205D01*
Y35642D01*
X1417Y128378D02*
X13583D01*
X1417Y75622D02*
Y128378D01*
Y75622D02*
X13583D01*
Y128378D01*
X5532Y102000D02*
X9469D01*
X7500Y100032D02*
Y103969D01*
X159500Y180532D02*
Y184469D01*
X157531Y182500D02*
X161468D01*
X181075Y168917D02*
Y196083D01*
X137925D02*
X181075D01*
X137925Y168917D02*
Y196083D01*
Y168917D02*
X181075D01*
X87937Y160406D02*
X130063D01*
X87937Y198594D02*
X130063D01*
X87937Y160406D02*
Y198594D01*
X130063Y160406D02*
Y198594D01*
X197043Y121613D02*
Y140904D01*
X239957Y121613D02*
Y140904D01*
X197043D02*
X239957D01*
X197043Y121613D02*
X239957D01*
X280276Y149719D02*
X284213D01*
X282244Y147751D02*
Y151688D01*
X266693Y129247D02*
Y170192D01*
X297795D01*
Y129247D02*
Y170192D01*
X266693Y129247D02*
X297795D01*
M02*
